<?xml version="1.0" encoding="utf-8"?>
<!-- Generator: Adobe Illustrator 16.0.3, SVG Export Plug-In . SVG Version: 6.00 Build 0)  -->
<!DOCTYPE svg PUBLIC "-//W3C//DTD SVG 1.1//EN" "http://www.w3.org/Graphics/SVG/1.1/DTD/svg11.dtd">
<svg version="1.1" id="Layer_1" xmlns="http://www.w3.org/2000/svg" xmlns:xlink="http://www.w3.org/1999/xlink" x="0px" y="0px"
	 width="30px" height="25px" viewBox="-5 -2.5 30 25" enable-background="new -5 -2.5 30 25" xml:space="preserve">
<path fill="#FFFFFF" d="M18.941,2.956C18.832,2.687,18.548,2.5,18.253,2.5c-0.203,0-0.382,0.081-0.514,0.151L2.846,10.525
	C2.499,10.709,2.29,11.03,2.285,11.38c-0.007,0.353,0.192,0.679,0.526,0.87l4.315,2.541l-6.301,6.3
	c-0.313,0.313-0.405,0.634-0.274,0.953c0.112,0.269,0.395,0.456,0.69,0.456c0.204,0,0.383-0.081,0.515-0.15l14.895-7.877
	c0.347-0.185,0.557-0.504,0.562-0.853c0.007-0.353-0.19-0.679-0.524-0.872l-4.306-2.554l6.286-6.284
	C18.982,3.596,19.074,3.274,18.941,2.956z M18.114,3.356l-6.998,6.997l5.175,3.07c0.042,0.025,0.141,0.091,0.137,0.183
	c0,0.09-0.102,0.152-0.145,0.176L1.388,21.657c-0.016,0.009-0.031,0.016-0.043,0.022c0.015-0.017,0.028-0.029,0.036-0.037
	l7.015-7.013l-5.19-3.057c-0.042-0.024-0.14-0.091-0.138-0.181c0.001-0.09,0.102-0.152,0.145-0.175l14.896-7.875
	c0.016-0.009,0.029-0.016,0.045-0.023C18.137,3.335,18.123,3.348,18.114,3.356z"/>
</svg>
