<?xml version="1.0" encoding="utf-8"?>
<!-- Generator: Adobe Illustrator 16.0.0, SVG Export Plug-In . SVG Version: 6.00 Build 0)  -->
<!DOCTYPE svg PUBLIC "-//W3C//DTD SVG 1.1//EN" "http://www.w3.org/Graphics/SVG/1.1/DTD/svg11.dtd">
<svg version="1.1" id="Layer_1" xmlns="http://www.w3.org/2000/svg" xmlns:xlink="http://www.w3.org/1999/xlink" x="0px" y="0px"
	 width="60px" height="60px" viewBox="0 0 60 60" enable-background="new 0 0 60 60" xml:space="preserve">
<g>
	<g>
		<g>
			<path fill="#B5D8F2" d="M29.999,15.916c0.864,0,1.731,0.084,2.59,0.244l-9.428-9.427c-0.087-0.086-0.154-0.188-0.211-0.295
				L1.095,28.292c-0.943,0.945-0.943,2.478,0,3.426l3.633,3.621c0.032-0.036,0.063-0.078,0.102-0.119l15.222-15.213
				C22.708,17.366,26.239,15.916,29.999,15.916z"/>
		</g>
		<g>
			<path fill="#61D2B4" d="M34.723,14.808l2.766-2.123c0.541-0.428,1.098-0.635,1.694-0.635c0.899,0,1.741,0.515,2.146,1.311
				c0.007,0.016,0.014,0.033,0.021,0.047c0.243,0.506,0.517,1.541-0.383,2.71c-0.005,0.006-0.01,0.017-0.016,0.025l-2.159,2.737
				l1.218,1.215c3.249,3.279,4.688,8.016,3.849,12.55l9.564-9.567c0.045-0.048,0.094-0.083,0.148-0.12L31.713,1.1
				c-0.46-0.456-1.068-0.711-1.712-0.711S28.747,0.644,28.29,1.1l-3.684,3.687c0.113,0.051,0.217,0.114,0.302,0.205L34.723,14.808z"
				/>
		</g>
		<g>
			<path fill="#61D2B4" d="M25.216,45.24l-2.725,2.096c-0.386,0.291-0.926,0.623-1.692,0.623c-0.004,0-0.005,0-0.007,0
				c-0.003,0-0.005,0-0.007,0c-0.039,0-0.079,0-0.123-0.01c-0.829-0.045-1.608-0.549-1.981-1.27c-0.006-0.02-0.02-0.045-0.025-0.063
				c-0.433-0.893-0.298-1.875,0.387-2.758l2.114-2.68l-1.304-1.303c-3.24-3.329-4.608-7.923-3.752-12.433l-9.528,9.519
				c-0.038,0.043-0.082,0.071-0.125,0.105l21.84,21.839c0.458,0.456,1.067,0.703,1.711,0.703s1.252-0.247,1.712-0.703l3.636-3.64
				c-0.131-0.058-0.255-0.141-0.363-0.251L25.216,45.24z"/>
		</g>
		<g>
			<path fill="#B5D8F2" d="M58.904,28.292l-3.611-3.612c-0.038,0.048-0.077,0.102-0.121,0.144l-15.25,15.242
				c-2.66,2.643-6.19,4.103-9.951,4.103c-0.863,0-1.731-0.087-2.592-0.246l9.354,9.347c0.108,0.109,0.188,0.231,0.249,0.364
				l21.923-21.915C59.848,30.771,59.848,29.237,58.904,28.292z"/>
		</g>
	</g>
	<g>
		<path fill="#F5D10A" d="M39.402,14.922l-8.952,11.357l0.343,0.465c0.464,0.639,1.924,2.747,4.738,6.851
			c0.168,0.243,0.222,1.063-0.24,1.418L21.302,45.752c-0.223,0.166-0.351,0.229-0.502,0.229c-0.004,0-0.005-0.01-0.007-0.01
			c-0.003,0-0.003,0.01-0.007,0.01c-0.145-0.01-0.292-0.104-0.349-0.213c-0.047-0.094-0.142-0.293,0.158-0.685l8.935-11.333
			l-5.062-7.282c-0.322-0.457-0.214-1.129,0.239-1.476l14.001-10.753c0.24-0.189,0.37-0.214,0.475-0.214
			c0.163,0,0.317,0.098,0.386,0.233C39.664,14.459,39.614,14.639,39.402,14.922z"/>
	</g>
</g>
</svg>
