<?xml version="1.0" encoding="utf-8"?>
<!-- Generator: Adobe Illustrator 16.0.3, SVG Export Plug-In . SVG Version: 6.00 Build 0)  -->
<!DOCTYPE svg PUBLIC "-//W3C//DTD SVG 1.1//EN" "http://www.w3.org/Graphics/SVG/1.1/DTD/svg11.dtd">
<svg version="1.1" id="Layer_1" xmlns="http://www.w3.org/2000/svg" xmlns:xlink="http://www.w3.org/1999/xlink" x="0px" y="0px"
	 width="300px" height="50px" viewBox="-25 30.333 300 50" enable-background="new -25 30.333 300 50" xml:space="preserve">
<g>
	<path fill="#4E5364" d="M14.725,42.404l-2.41,2.405c2.193,2.944,3.506,6.578,3.506,10.522c0,9.76-7.941,17.7-17.702,17.7
		c-0.003,0-0.007,0-0.011,0c-0.006,0-0.01,0-0.016,0c-0.75,0-1.485-0.063-2.211-0.15c-0.142-0.019-0.278-0.043-0.42-0.063
		c-0.66-0.1-1.309-0.233-1.943-0.401c-0.055-0.016-0.11-0.028-0.163-0.044c-0.79-0.222-1.558-0.494-2.296-0.814
		c-2.86-1.242-5.302-3.23-7.136-5.704c-1.569-2.112-2.7-4.569-3.198-7.262c-0.012-0.052-0.017-0.109-0.026-0.164
		c-0.084-0.473-0.158-0.947-0.201-1.43c-0.017-0.171-0.017-0.346-0.026-0.518c-0.022-0.373-0.057-0.745-0.057-1.126
		c0-1.226,0.124-2.419,0.36-3.572c0.114-0.553,0.255-1.093,0.418-1.621c0.005-0.021,0.01-0.043,0.015-0.063
		c2.237-7.211,8.974-12.468,16.91-12.468c1.187,0,2.329,0.158,3.441,0.391c0.059,0.014,0.117,0.023,0.176,0.036
		c0.466,0.099,0.925,0.221,1.378,0.354c0.299,0.088,0.589,0.194,0.884,0.297c0.262,0.092,0.523,0.181,0.78,0.286
		c0.109,0.045,0.215,0.105,0.326,0.153l3.716-1.966c-3.14-1.86-6.796-2.934-10.701-2.934c-11.624,0-21.084,9.457-21.084,21.084
		c0,4.877,1.681,9.36,4.475,12.937c1.627,2.084,3.635,3.853,5.923,5.205c3.139,1.858,6.785,2.942,10.688,2.942
		c11.624,0,21.084-9.458,21.084-21.084C19.202,50.454,17.516,45.976,14.725,42.404z"/>
	<g>
		<path fill="#F7C600" d="M-17.04,72.458c-0.234,0-0.493-0.164-0.582-0.383c-0.176-0.429,0.185-0.786,0.338-0.94l11.863-11.86
			l-8.466-4.988c-0.385-0.22-0.604-0.562-0.597-0.937c0.006-0.376,0.234-0.711,0.629-0.921l26.541-14.033
			c0.249-0.132,0.427-0.188,0.591-0.188c0.236,0,0.494,0.162,0.583,0.379c0.177,0.429-0.17,0.775-0.337,0.941L1.686,51.363
			l8.444,5.01c0.385,0.223,0.602,0.565,0.594,0.939c-0.006,0.376-0.236,0.707-0.63,0.917l-26.543,14.039
			C-16.696,72.401-16.874,72.458-17.04,72.458z"/>
		<path fill="#4E5364" d="M13.277,38.788c0.099,0,0.048,0.115-0.166,0.329L1.274,50.954C0.937,51.292,1,51.762,1.411,52.001
			l8.426,4.877c0.412,0.239,0.406,0.614-0.017,0.838l-26.54,14.038c-0.155,0.082-0.263,0.12-0.32,0.12
			c-0.098,0-0.047-0.114,0.166-0.328l11.863-11.863c0.337-0.337,0.274-0.809-0.139-1.043l-8.447-4.86
			c-0.412-0.235-0.405-0.613,0.016-0.837L12.96,38.911C13.115,38.828,13.221,38.788,13.277,38.788 M13.277,37.625L13.277,37.625
			c-0.266,0-0.525,0.076-0.866,0.257l-26.536,14.032c-0.582,0.308-0.932,0.841-0.941,1.424s0.324,1.127,0.892,1.451l7.879,4.532
			l-11.401,11.401c-0.522,0.521-0.68,1.051-0.464,1.574c0.18,0.436,0.652,0.74,1.121,0.74c0.268,0,0.526-0.076,0.866-0.256
			l26.54-14.038c0.577-0.306,0.929-0.835,0.94-1.419c0.012-0.583-0.319-1.128-0.884-1.453l-7.867-4.553l11.381-11.38
			c0.522-0.523,0.679-1.055,0.463-1.576C14.22,37.928,13.749,37.625,13.277,37.625L13.277,37.625z"/>
	</g>
	<g>
		<path fill="#717583" d="M49.071,37.843c-4.187,0-7.612,1.333-10.275,3.994c-2.636,2.638-3.953,6.049-3.953,10.236
			c0,4.188,1.331,7.613,3.992,10.276c2.638,2.635,6.05,3.955,10.236,3.955c4.188,0,7.613-1.332,10.276-3.994
			c2.661-2.636,3.992-6.049,3.992-10.237c0-4.188-1.332-7.613-3.992-10.275C56.658,39.163,53.233,37.843,49.071,37.843z
			 M58.224,61.224c-2.38,2.328-5.43,3.491-9.152,3.491c-3.695,0-6.733-1.189-9.111-3.568c-2.353-2.351-3.527-5.376-3.527-9.073
			c0-3.696,1.189-6.733,3.567-9.111c2.378-2.377,5.402-3.566,9.071-3.566c3.723,0,6.772,1.189,9.152,3.566
			c2.351,2.354,3.529,5.391,3.529,9.111C61.753,55.822,60.573,58.873,58.224,61.224z"/>
		<path fill="#717583" d="M75.438,49.669c-2.742,0-4.939,1.085-6.594,3.258v-3.026h-1.59v23.536h1.59V62.93
			c1.733,2.17,3.929,3.256,6.594,3.256c2.326,0,4.291-0.801,5.894-2.403c1.576-1.575,2.364-3.527,2.364-5.855
			s-0.803-4.291-2.404-5.894C79.718,50.458,77.765,49.669,75.438,49.669z M80.167,62.699c-1.291,1.292-2.868,1.938-4.729,1.938
			c-1.836,0-3.413-0.658-4.73-1.976c-1.318-1.317-1.978-2.895-1.978-4.731c0-1.859,0.659-3.451,1.978-4.77
			c1.294-1.292,2.869-1.938,4.73-1.938c1.834,0,3.411,0.657,4.729,1.977c1.318,1.318,1.979,2.895,1.979,4.729
			C82.146,59.789,81.485,61.38,80.167,62.699z"/>
		<path fill="#717583" d="M100.175,51.841c-1.55-1.474-3.515-2.209-5.895-2.209c-2.404,0-4.395,0.788-5.971,2.364
			c-1.552,1.552-2.326,3.528-2.326,5.933c0,2.379,0.787,4.355,2.363,5.933c1.552,1.577,3.529,2.365,5.934,2.365
			c1.009,0,1.912-0.128,2.714-0.387c2.094-0.672,3.644-1.964,4.651-3.877l-1.434-0.659c-0.879,1.422-1.872,2.365-2.985,2.829
			c-0.879,0.361-1.861,0.542-2.946,0.542c-2.12,0-3.787-0.646-5.003-1.938c-1.163-1.267-1.743-2.985-1.743-5.157h15.004
			C102.539,55.227,101.75,53.314,100.175,51.841z M94.28,51.182c1.576,0,2.972,0.44,4.187,1.319c1.269,0.904,2.03,2.094,2.288,3.566
			H87.768C88.801,52.81,90.971,51.182,94.28,51.182z"/>
		<path fill="#717583" d="M112.428,49.709c-2.355,0-3.893,0.711-4.616,2.132v-1.94h-1.59v16.015h1.59v-9.733
			c0-1.525,0.401-2.726,1.203-3.604c0.773-0.878,1.912-1.318,3.413-1.318c3.049,0,4.574,1.693,4.574,5.081v9.576h1.589v-9.732
			c0-2.042-0.53-3.632-1.589-4.769C115.94,50.278,114.416,49.709,112.428,49.709z"/>
		<polygon fill="#4E5364" points="128.19,37.693 125.563,37.693 125.563,66.456 135.985,66.456 135.985,63.787 128.19,63.787 		"/>
		<path fill="#4E5364" d="M140.084,43.943c-1.501,0.274-1.726,1.251-1.722,1.846c0.03,0.519,0.216,0.948,0.604,1.324
			c0.399,0.305,0.812,0.458,1.214,0.458c1.155,0,1.817-0.664,1.803-1.945C141.624,44.155,140.716,43.958,140.084,43.943z"/>
		<rect x="138.827" y="49.365" fill="#4E5364" width="2.666" height="17.091"/>
		<polygon fill="#4E5364" points="151.105,42.345 148.438,42.345 148.438,49.365 146.267,49.365 146.267,52.033 148.438,52.033 
			148.438,66.456 151.105,66.456 151.105,52.033 154.829,52.033 154.829,49.365 151.105,49.365 		"/>
		<path fill="#4E5364" d="M165.303,49.092c-2.541,0-4.678,0.85-6.35,2.524c-1.652,1.646-2.485,3.77-2.485,6.313
			c0,2.518,0.848,4.642,2.519,6.311c1.649,1.676,3.774,2.526,6.316,2.526c1.059,0,2.028-0.139,2.878-0.413
			c2.224-0.715,3.896-2.107,4.967-4.139l0.264-0.504l-2.386-1.096l-0.251,0.405c-0.813,1.318-1.735,2.198-2.732,2.615
			c-0.805,0.332-1.729,0.502-2.74,0.502c-1.982,0-3.491-0.579-4.605-1.764c-0.967-1.054-1.501-2.482-1.591-4.255h14.993v-0.538
			c0-2.497-0.852-4.56-2.532-6.13C169.919,49.886,167.813,49.092,165.303,49.092z M165.303,51.721c1.472,0,2.74,0.398,3.873,1.218
			c0.969,0.693,1.601,1.545,1.923,2.591h-11.543C160.589,52.968,162.476,51.721,165.303,51.721z"/>
		<path fill="#4E5364" d="M187.795,51.167c-0.891-0.538-1.965-1.09-3.193-1.639c-1.887-0.855-3.155-1.536-3.749-2.012
			c-1.021-0.882-1.518-1.876-1.518-3.042c0-1.318,0.469-2.351,1.436-3.156c0.918-0.777,2.048-1.153,3.454-1.153
			c1.334,0,2.426,0.26,3.26,0.782c0.641,0.365,1.2,0.941,1.666,1.712l0.244,0.404l2.487-1.085l-0.283-0.52
			c-1.444-2.603-3.925-3.922-7.374-3.922c-2.093,0-3.882,0.646-5.314,1.91c-1.486,1.267-2.245,2.957-2.245,5.027
			c0,2.066,0.741,3.755,2.194,5.013c0.849,0.768,2.369,1.635,4.642,2.651c1.14,0.507,2.093,0.971,2.826,1.376
			c0.71,0.393,1.233,0.744,1.572,1.055c1.261,1.12,1.872,2.484,1.872,4.173c0,1.793-0.51,3.106-1.558,4.013
			c-1.031,0.891-2.49,1.342-4.341,1.342c-3.244,0-5.229-1.494-6.069-4.565l-0.151-0.553l-2.628,0.896l0.151,0.498
			c1.289,4.241,4.213,6.391,8.697,6.391c1.425,0,2.688-0.193,3.757-0.577c3.19-1.192,4.809-3.699,4.809-7.446
			c0-2.334-0.811-4.315-2.407-5.887C189.462,52.288,188.711,51.719,187.795,51.167z"/>
		<path fill="#4E5364" d="M204.504,49.131c-2.403,0-4.434,0.799-6.057,2.377v-2.144h-2.666v24.613h2.666V64.32
			c1.671,1.6,3.701,2.407,6.057,2.407c2.462,0,4.571-0.861,6.27-2.562c1.676-1.672,2.525-3.771,2.525-6.236
			c0-2.464-0.862-4.574-2.561-6.273C209.062,49.981,206.963,49.131,204.504,49.131z M204.504,64.098
			c-1.703,0-3.127-0.596-4.35-1.819c-1.227-1.224-1.823-2.647-1.823-4.351c0-1.729,0.597-3.165,1.823-4.387
			c1.194-1.198,2.62-1.781,4.35-1.781c1.699,0,3.124,0.596,4.349,1.82c1.224,1.226,1.82,2.648,1.82,4.349
			c0,1.728-0.597,3.163-1.82,4.389C207.652,63.515,206.228,64.098,204.504,64.098z"/>
		<path fill="#4E5364" d="M223.731,49.092c-2.541,0-4.679,0.85-6.351,2.524c-1.65,1.646-2.486,3.77-2.486,6.313
			c0,2.518,0.849,4.642,2.521,6.311c1.648,1.676,3.772,2.526,6.316,2.526c1.056,0,2.026-0.139,2.877-0.413
			c2.223-0.715,3.896-2.107,4.967-4.139l0.262-0.504l-2.383-1.096l-0.251,0.405c-0.814,1.318-1.734,2.198-2.731,2.615
			c-0.807,0.332-1.729,0.502-2.74,0.502c-1.983,0-3.491-0.579-4.608-1.764c-0.968-1.054-1.502-2.482-1.588-4.255h14.99v-0.538
			c0-2.497-0.85-4.56-2.531-6.13C228.348,49.886,226.24,49.092,223.731,49.092z M223.731,51.721c1.474,0,2.743,0.398,3.874,1.218
			c0.969,0.693,1.601,1.545,1.92,2.591h-11.542C219.016,52.968,220.9,51.721,223.731,51.721z"/>
		<path fill="#4E5364" d="M244.629,49.092c-2.541,0-4.677,0.85-6.35,2.524c-1.648,1.646-2.484,3.77-2.484,6.313
			c0,2.518,0.848,4.642,2.518,6.311c1.65,1.676,3.774,2.526,6.316,2.526c1.06,0,2.029-0.139,2.879-0.413
			c2.223-0.715,3.896-2.107,4.967-4.139l0.263-0.504l-2.383-1.096l-0.252,0.405c-0.813,1.318-1.734,2.198-2.734,2.615
			c-0.805,0.332-1.729,0.502-2.74,0.502c-1.981,0-3.49-0.579-4.605-1.764c-0.966-1.054-1.501-2.482-1.591-4.255h14.995v-0.538
			c0-2.497-0.854-4.56-2.533-6.13C249.248,49.886,247.14,49.092,244.629,49.092z M244.629,51.721c1.476,0,2.741,0.398,3.876,1.218
			c0.97,0.693,1.6,1.545,1.92,2.591h-11.541C239.916,52.968,241.804,51.721,244.629,51.721z"/>
		<path fill="#4E5364" d="M270.301,36.684v14.79c-1.697-1.556-3.701-2.344-5.973-2.344c-2.463,0-4.575,0.862-6.273,2.562
			c-1.676,1.674-2.525,3.771-2.525,6.235c0,2.466,0.86,4.576,2.561,6.274c1.676,1.674,3.772,2.523,6.238,2.523
			c2.322,0,4.327-0.779,5.974-2.313v2.04h2.665V36.684H270.301z M264.328,51.758c1.703,0,3.126,0.596,4.348,1.82
			c1.225,1.223,1.821,2.646,1.821,4.35c0,1.73-0.597,3.166-1.821,4.389c-1.197,1.198-2.619,1.78-4.348,1.78
			c-1.701,0-3.125-0.596-4.35-1.819c-1.226-1.225-1.821-2.648-1.821-4.351c0-1.729,0.596-3.166,1.821-4.387
			C261.173,52.341,262.599,51.758,264.328,51.758z"/>
	</g>
</g>
</svg>
