<?xml version="1.0" encoding="utf-8"?>
<!-- Generator: Adobe Illustrator 16.0.3, SVG Export Plug-In . SVG Version: 6.00 Build 0)  -->
<!DOCTYPE svg PUBLIC "-//W3C//DTD SVG 1.1//EN" "http://www.w3.org/Graphics/SVG/1.1/DTD/svg11.dtd">
<svg version="1.1" id="Layer_1" xmlns="http://www.w3.org/2000/svg" xmlns:xlink="http://www.w3.org/1999/xlink" x="0px" y="0px"
	 width="12px" height="12px" viewBox="0 0 12 12" enable-background="new 0 0 12 12" xml:space="preserve">
<path fill="#cca300" d="M9.231,0.389c0.007-0.013-0.002-0.032,0.004-0.047c0.016-0.046,0.035-0.093,0.012-0.149
	C9.231,0.154,9.2,0.121,9.163,0.097C9.158,0.093,9.15,0.094,9.143,0.091C9.111,0.074,9.079,0.06,9.046,0.06l0,0
	c-0.001,0-0.001,0-0.001,0c-0.058,0-0.12,0.021-0.208,0.066c0,0-5.128,4.836-5.129,4.965C3.705,5.22,3.78,5.34,3.913,5.417L6,7.015
	L2.864,11.48c-0.027,0.027-0.071,0.071-0.102,0.129c-0.017,0.034-0.007,0.077-0.008,0.116c-0.002,0.027-0.02,0.051-0.007,0.082
	c0.03,0.075,0.12,0.133,0.201,0.133c0,0,0,0,0.001,0l0,0c0.057,0,0.119-0.021,0.207-0.066c0,0,5.135-4.836,5.136-4.965
	c0.003-0.131-0.071-0.25-0.205-0.327L6,4.986L9.131,0.52C9.156,0.492,9.2,0.446,9.231,0.389z"/>
</svg>
