<?xml version="1.0" encoding="utf-8"?>
<!-- Generator: Adobe Illustrator 16.0.3, SVG Export Plug-In . SVG Version: 6.00 Build 0)  -->
<!DOCTYPE svg PUBLIC "-//W3C//DTD SVG 1.1//EN" "http://www.w3.org/Graphics/SVG/1.1/DTD/svg11.dtd">
<svg version="1.1" id="Layer_1" xmlns="http://www.w3.org/2000/svg" xmlns:xlink="http://www.w3.org/1999/xlink" x="0px" y="0px"
	 width="300px" height="300px" viewBox="0 0 300 300" enable-background="new 0 0 300 300" xml:space="preserve">
<g>
	<path fill="#5E8CDA" d="M254.859,146.258l-68.508-68.516l-29.203,37.055l31.461,31.461c2.922,2.922,2.922,7.68,0,10.57
		l-9.086,9.086c0,0,6.148,9.195,6.414,9.75c1.422,2.836,1.742,9.492-2.273,12.547l-71.57,54.969c0,18.422-0.016,56.336,0,56.344
		c0.031,0,142.766-142.695,142.766-142.695C257.75,153.898,257.75,149.18,254.859,146.258z"/>
	<path fill="#093071" d="M95.703,154.891c-2.898-2.875-2.898-7.641,0-10.531l9.109-9.125l-6.219-8.938
		c-2.977-4.219-2.039-10.203,2.055-13.344l71.602-54.938l0.023-56.328l-0.023-0.031l-0.039-0.047L29.477,144.359
		c-2.922,2.891-2.922,7.656,0,10.539l68.5,68.508l29.219-37.055L95.703,154.891z"/>
</g>
<path fill="#5E8CDA" d="M208.297,35.727c1.092,0,2.147,0.654,2.624,1.624c0.804,1.658-0.217,3.189-1.236,4.495l-0.04,0.051
	l-62.727,79.64c-0.829,1.05-0.891,3.144-0.132,4.218c0.339,0.491,33.879,49.111,35.027,50.794c1.342,1.918,1.425,7.623-1.657,9.978
	L79.348,263.915c-1.305,0.993-2.252,1.535-3.492,1.546c-0.99-0.082-2.015-0.756-2.44-1.601c-0.783-1.612,0.143-3.176,1.253-4.616
	l62.727-79.607c0.83-1.114,0.908-3.081,0.152-4.231l-35.019-50.348c-2.308-3.283-1.585-7.943,1.611-10.39l100.851-77.445
	C206.396,36.146,207.321,35.727,208.297,35.727 M208.297,34.727c-1.211,0-2.336,0.492-3.914,1.703l-100.852,77.445
	c-3.625,2.773-4.445,8.023-1.82,11.758l35.016,50.344c0.508,0.773,0.438,2.297-0.133,3.063l-62.711,79.586
	c-0.813,1.055-2.523,3.289-1.367,5.672c0.594,1.18,1.945,2.07,3.305,2.164c1.555,0,2.695-0.656,4.133-1.75l100.813-77.391
	c3.508-2.68,3.523-8.977,1.867-11.344c-1.156-1.695-35.023-50.789-35.023-50.789c-0.508-0.719-0.461-2.328,0.094-3.031
	l62.727-79.641c0.805-1.031,2.555-3.203,1.391-5.602C211.172,35.594,209.766,34.727,208.297,34.727L208.297,34.727z"/>
<path fill="#F5CD21" d="M178.992,176.898c0.82,1.25,1.563,5.867-0.477,7.422L77.641,261.75c-0.836,0.664-1.391,0.984-1.617,0.961
	c-0.359,0.023-0.102-0.586,0.82-1.797l62.688-79.555c1.586-2.039,1.688-5.414,0.227-7.516l-34.977-50.367
	C104.781,123.477,178.188,175.664,178.992,176.898z"/>
<path fill="#FDDD75" d="M178.992,176.898l-34.461-49.555c-1.438-2.125-1.336-5.492,0.242-7.508l62.695-79.578
	c0.945-1.203,1.164-1.781,0.828-1.781c-0.227,0-0.805,0.281-1.625,0.945l-100.875,77.422c-2.016,1.555-2.477,4.547-1.016,6.633
	L178.992,176.898z"/>
</svg>
