<?xml version="1.0" encoding="utf-8"?>
<!-- Generator: Adobe Illustrator 16.0.3, SVG Export Plug-In . SVG Version: 6.00 Build 0)  -->
<!DOCTYPE svg PUBLIC "-//W3C//DTD SVG 1.1//EN" "http://www.w3.org/Graphics/SVG/1.1/DTD/svg11.dtd">
<svg version="1.1" id="Layer_1" xmlns="http://www.w3.org/2000/svg" xmlns:xlink="http://www.w3.org/1999/xlink" x="0px" y="0px"
	 width="12px" height="12px" viewBox="0 0 12 12" enable-background="new 0 0 12 12" xml:space="preserve">
<g>
	<g>
		<path fill="#006699" d="M6,1.581c-0.11,0.088-1.625,1.275-3.567,1.684C2.176,7.982,5.997,10.426,6,10.424
			c0.002,0.002,3.825-2.441,3.568-7.159C7.625,2.855,6,1.581,6,1.581z"/>
		<path fill="#006699" d="M10.83,2.504c-0.008-0.143-0.105-0.262-0.24-0.291c-2.367-0.5-4.391-2.067-4.411-2.083
			C6.072,0.047,5.925,0.047,5.818,0.132c-0.08,0.064-1.98,1.569-4.409,2.081c-0.133,0.028-0.232,0.147-0.24,0.291
			C0.975,6.089,2.573,8.67,3.948,10.201c0.516,0.576,1,1.001,1.316,1.255c0.18,0.147,0.327,0.254,0.417,0.319
			c0.169,0.12,0.217,0.154,0.311,0.156c0.004,0,0.008,0,0.012,0c0.092,0,0.148-0.039,0.294-0.143
			c0.079-0.055,0.208-0.149,0.368-0.276c0.279-0.223,0.712-0.593,1.184-1.092c0.885-0.938,1.59-1.983,2.096-3.105
			C10.625,5.805,10.922,4.188,10.83,2.504z M8.206,9.054c-0.909,1.2-1.85,1.932-2.207,2.188c-0.356-0.256-1.297-0.987-2.207-2.189
			C2.37,7.173,1.685,5.064,1.757,2.78c2.051-0.487,3.709-1.614,4.245-2.009C6.545,1.165,8.231,2.3,10.242,2.78
			C10.316,5.064,9.631,7.174,8.206,9.054z"/>
	</g>
</g>
</svg>
