<?xml version="1.0" encoding="utf-8"?>
<!-- Generator: Adobe Illustrator 16.0.3, SVG Export Plug-In . SVG Version: 6.00 Build 0)  -->
<!DOCTYPE svg PUBLIC "-//W3C//DTD SVG 1.1//EN" "http://www.w3.org/Graphics/SVG/1.1/DTD/svg11.dtd">
<svg version="1.1" id="Layer_1" xmlns="http://www.w3.org/2000/svg" xmlns:xlink="http://www.w3.org/1999/xlink" x="0px" y="0px"
	 width="12px" height="12px" viewBox="0 0 12 12" enable-background="new 0 0 12 12" xml:space="preserve">
<path fill="#F15A29" d="M6,0.5C2.967,0.5,0.5,2.967,0.5,6c0,3.032,2.467,5.5,5.5,5.5c3.032,0,5.5-2.468,5.5-5.5
	C11.5,2.967,9.032,0.5,6,0.5z M6,10.5c-2.481,0-4.5-2.019-4.5-4.5S3.519,1.5,6,1.5s4.5,2.019,4.5,4.5S8.481,10.5,6,10.5z"/>
<g>
	<path fill="#F15A29" d="M6.602,8.649c0,0.164-0.059,0.305-0.178,0.42C6.306,9.185,6.164,9.243,6,9.243S5.694,9.185,5.576,9.069
		c-0.119-0.115-0.178-0.256-0.178-0.42s0.059-0.305,0.178-0.424C5.694,8.106,5.836,8.048,6,8.048s0.306,0.059,0.424,0.178
		C6.543,8.345,6.602,8.485,6.602,8.649z M6.563,3.35c0,0.146-0.049,0.639-0.145,1.477C6.321,5.664,6.236,6.475,6.163,7.257H5.82
		C5.756,6.475,5.676,5.664,5.58,4.826C5.485,3.988,5.438,3.496,5.438,3.35c0-0.167,0.053-0.308,0.158-0.422S5.836,2.757,6,2.757
		s0.299,0.057,0.404,0.169C6.51,3.039,6.563,3.18,6.563,3.35z"/>
</g>
</svg>
