<?xml version="1.0" encoding="utf-8"?>
<!-- Generator: Adobe Illustrator 16.0.3, SVG Export Plug-In . SVG Version: 6.00 Build 0)  -->
<!DOCTYPE svg PUBLIC "-//W3C//DTD SVG 1.1//EN" "http://www.w3.org/Graphics/SVG/1.1/DTD/svg11.dtd">
<svg version="1.1" id="Layer_1" xmlns="http://www.w3.org/2000/svg" xmlns:xlink="http://www.w3.org/1999/xlink" x="0px" y="0px"
	 width="12px" height="12px" viewBox="0 0 12 12" enable-background="new 0 0 12 12" xml:space="preserve">
<g>
	<path fill="#00929E" d="M6,0.5C2.967,0.5,0.5,2.967,0.5,6c0,3.032,2.467,5.5,5.5,5.5c3.032,0,5.5-2.468,5.5-5.5
		C11.5,2.967,9.032,0.5,6,0.5z M6,10.5c-2.481,0-4.5-2.019-4.5-4.5S3.519,1.5,6,1.5s4.5,2.019,4.5,4.5S8.481,10.5,6,10.5z"/>
	<path fill="#00929E" d="M5.978,3.827c0.158,0,0.295-0.057,0.407-0.168c0.112-0.112,0.168-0.249,0.168-0.407
		c0-0.155-0.057-0.292-0.169-0.406c-0.229-0.232-0.593-0.229-0.816,0C5.455,2.959,5.398,3.097,5.398,3.252
		c0,0.159,0.057,0.296,0.17,0.408C5.682,3.771,5.819,3.827,5.978,3.827z"/>
	<path fill="#00929E" d="M7.201,8.486H6.586V4.622c0-0.059-0.047-0.106-0.106-0.106H4.985c-0.059,0-0.106,0.048-0.106,0.106v0.444
		c0,0.059,0.048,0.106,0.106,0.106h0.624v3.314H4.985c-0.059,0-0.106,0.048-0.106,0.107v0.439c0,0.059,0.048,0.105,0.106,0.105
		h2.216c0.06,0,0.107-0.047,0.107-0.105V8.594C7.309,8.534,7.261,8.486,7.201,8.486z"/>
</g>
</svg>
