<?xml version="1.0" encoding="utf-8"?>
<!-- Generator: Adobe Illustrator 16.0.3, SVG Export Plug-In . SVG Version: 6.00 Build 0)  -->
<!DOCTYPE svg PUBLIC "-//W3C//DTD SVG 1.1//EN" "http://www.w3.org/Graphics/SVG/1.1/DTD/svg11.dtd">
<svg version="1.1" id="Layer_1" xmlns="http://www.w3.org/2000/svg" xmlns:xlink="http://www.w3.org/1999/xlink" x="0px" y="0px"
	 width="150px" height="75px" viewBox="0 0 150 75" enable-background="new 0 0 150 75" xml:space="preserve">
<g>
	<g>
		<path fill="#798193" d="M-119.062,379.44c0.113,0.113,0.23,0.221,0.346,0.328l-0.337-0.338l-0.338-0.338
			C-119.283,379.21-119.176,379.325-119.062,379.44z"/>
		<path fill="#798193" d="M-118.703,362.048l-0.017,0.018c-0.116,0.107-0.231,0.215-0.343,0.326s-0.218,0.227-0.324,0.342l0,0
			l-8.175,8.174l8.174,8.174c0.11,0.117,0.22,0.236,0.334,0.35c0.115,0.115,0.232,0.225,0.351,0.336
			c4.614,4.262,11.746,4.26,16.357-0.01l-0.018,0.018c0.119-0.109,0.236-0.219,0.351-0.334s0.225-0.232,0.334-0.352l0,0
			c4.27-4.611,4.271-11.746,0.004-16.361l-0.675-0.674C-106.962,357.788-114.09,357.786-118.703,362.048z"/>
	</g>
	<path fill="#FFFFFF" d="M-99.822,376.427c-0.017-0.037-0.042-0.078-0.067-0.108c-0.048-0.057-0.092-0.118-0.137-0.178l-0.086-0.117
		c-0.883-1.139-1.47-2.46-1.699-3.823c-0.005-0.03-0.013-0.059-0.024-0.087c-0.072-0.505-0.486-0.898-1.011-0.944
		c-0.033-0.009-0.067-0.014-0.1-0.014c-0.025,0-0.052,0.003-0.078,0.008h-1.167c-0.026-0.005-0.052-0.008-0.077-0.008
		c-0.545,0-1.003,0.418-1.078,0.976c-0.001,0.005-0.002,0.009-0.002,0.009c-0.7,2.215-2.706,3.693-4.994,3.693
		c-2.903,0-5.266-2.362-5.266-5.267c0-2.905,2.363-5.269,5.266-5.269c2.348,0,4.367,1.532,5.021,3.813l0.013,0.049l0.009,0.036
		c0.025,0.131,0.086,0.223,0.123,0.279l0.022,0.045c0.027,0.073,0.071,0.194,0.186,0.301c0.194,0.193,0.448,0.302,0.724,0.302
		c0.018,0,0.037-0.001,0.055-0.004c0.472-0.026,0.851-0.355,0.978-0.848c0.009-0.035,0.014-0.071,0.014-0.107v-0.28v-0.152
		c0-0.039-0.005-0.078-0.016-0.116c-0.28-1.001-0.759-1.919-1.423-2.727c-0.678-0.822-1.499-1.476-2.439-1.94
		c-0.016-0.009-0.034-0.019-0.051-0.029c-0.044-0.026-0.089-0.051-0.137-0.072c-0.943-0.437-1.985-0.659-3.094-0.659
		c-0.502,0-0.998,0.044-1.473,0.132c-3.434,0.714-5.919,3.767-5.919,7.26c0.008,3.505,2.496,6.551,5.917,7.258
		c0.501,0.103,1.007,0.154,1.505,0.154c1.037,0,2.059-0.226,3.035-0.669c0.081-0.036,0.161-0.081,0.24-0.126
		c0.036-0.02,0.071-0.04,0.107-0.06c0.327-0.173,0.708-0.386,1.066-0.665l0.067-0.059l0.041-0.035
		c0.4-0.324,0.757-0.671,1.082-1.055c0.019-0.016,0.036-0.034,0.052-0.053c0.369-0.451,0.682-0.961,0.95-1.55
		c0.386,1.356,1.033,2.635,1.893,3.729c0.028,0.036,0.052,0.068,0.076,0.101c0.041,0.053,0.081,0.106,0.125,0.158
		c0.022,0.026,0.047,0.051,0.075,0.07c0.113,0.083,0.35,0.256,0.67,0.256c0.645,0,1.17-0.525,1.17-1.171
		c0-0.186-0.078-0.32-0.125-0.4C-99.808,376.451-99.816,376.439-99.822,376.427z"/>
</g>
<g>
	<path fill="#798193" d="M-74.215,362.729l-0.676-0.677l-8.178-8.178l-8.174,8.176c-0.118,0.107-0.235,0.219-0.351,0.332
		c-0.115,0.116-0.225,0.234-0.334,0.352c-2.076,2.247-3.132,5.095-3.185,7.954v-0.259c-0.005,0.158-0.012,0.317-0.012,0.479
		c0,0.16,0.005,0.317,0.012,0.476v-0.258c0.052,2.86,1.109,5.708,3.185,7.955l0.686,0.684c4.613,4.263,11.745,4.26,16.356-0.007
		l0.667-0.668C-69.949,374.479-69.948,367.345-74.215,362.729z"/>
	<g>
		<path fill="#FFFFFF" d="M-74.86,376.427c-0.017-0.036-0.042-0.078-0.067-0.107c-0.048-0.057-0.091-0.116-0.134-0.176l-0.09-0.121
			c-0.882-1.138-1.469-2.459-1.698-3.822c-0.003-0.021-0.008-0.039-0.014-0.058c-0.036-0.249-0.148-0.476-0.323-0.647
			c-0.099-0.099-0.219-0.181-0.355-0.239c-0.021-0.009-0.048-0.018-0.074-0.023c-0.109-0.04-0.212-0.063-0.318-0.067
			c-0.012-0.002-0.023-0.002-0.034-0.002c-0.019,0-0.191,0.002-0.398,0.07c-0.05,0.017-0.077,0.026-0.104,0.039
			c-0.08,0.034-0.211,0.099-0.341,0.221c-0.176,0.165-0.289,0.376-0.347,0.647c-0.002,0.007-0.008,0.022-0.014,0.04l-0.023,0.069
			c-0.138,0.444-0.354,0.883-0.639,1.303c-0.025,0.039-0.047,0.069-0.069,0.101l-0.034,0.046c-0.114,0.158-0.247,0.318-0.392,0.475
			c-1.012,1.123-2.375,1.739-3.844,1.739c-2.173,0-4.13-1.39-4.87-3.457c-0.032-0.09-0.058-0.183-0.084-0.275
			c-0.021-0.071-0.039-0.123-0.057-0.175c-0.02-0.058-0.04-0.113-0.053-0.173c-0.01-0.047-0.028-0.091-0.053-0.132
			c-0.209-0.342-0.565-0.546-0.951-0.546c-0.558,0-1.022,0.408-1.104,0.971c-0.007,0.052-0.005,0.104,0.006,0.154
			c0.04,0.182,0.087,0.361,0.14,0.538c0.085,0.287,0.192,0.576,0.317,0.86c0.064,0.146,0.134,0.288,0.207,0.43l0.064,0.126
			c0.83,1.515,2.171,2.692,3.779,3.32c0.835,0.308,1.731,0.463,2.671,0.463c0.862,0,1.684-0.131,2.442-0.389
			c0.032-0.01,0.068-0.022,0.104-0.036c0.156-0.056,0.319-0.126,0.481-0.199c0.134-0.061,0.263-0.12,0.388-0.187
			c0.044-0.023,0.088-0.049,0.133-0.074l0.038-0.021c0.919-0.52,1.711-1.22,2.326-2.051c0.369,0.858,0.843,1.659,1.417,2.39
			c0.027,0.033,0.05,0.064,0.073,0.095c0.042,0.056,0.083,0.11,0.129,0.164c0.021,0.025,0.046,0.049,0.073,0.068
			c0.173,0.127,0.388,0.257,0.672,0.257c0.645,0,1.17-0.525,1.17-1.171c0-0.187-0.079-0.32-0.125-0.4
			C-74.847,376.45-74.854,376.439-74.86,376.427z"/>
		<path fill="#FFFFFF" d="M-90.334,370.149c0.531,0,0.97-0.379,1.077-0.926c0.048-0.14,0.326-0.859,0.475-1.134
			c0.011-0.021,0.021-0.042,0.028-0.064c0.014-0.03,0.027-0.057,0.04-0.083c0.002-0.003,0.023-0.034,0.025-0.036
			c0.009-0.012,0.017-0.023,0.024-0.035c0.957-1.583,2.618-2.527,4.443-2.527c2.291,0,4.283,1.487,4.958,3.701
			c0.003,0.017,0.011,0.036,0.02,0.056c0.053,0.587,0.547,1.049,1.148,1.049c0.025,0,0.051-0.003,0.076-0.007
			c0.522-0.038,0.952-0.433,1.041-0.961c0.003-0.023,0.006-0.047,0.006-0.071v-14.976v-0.338c0-0.011,0.001-0.02,0.001-0.03v-0.116
			c0-0.049-0.009-0.099-0.025-0.146c-0.163-0.453-0.594-0.759-1.071-0.759c-0.51,0-0.948,0.336-1.089,0.835
			c-0.01,0.038-0.016,0.077-0.016,0.117v0.384v11.161c-1.435-1.332-3.133-2.006-5.061-2.006c-2.068,0-3.841,0.724-5.269,2.151
			c-0.904,0.901-1.521,1.993-1.837,3.246c-0.023,0.093-0.04,0.188-0.056,0.284l-0.021,0.119c-0.01,0.05-0.01,0.101-0.001,0.15
			C-91.327,369.745-90.871,370.149-90.334,370.149z M-89.046,367.666L-89.046,367.666L-89.046,367.666L-89.046,367.666z"/>
	</g>
</g>
<g>
	<g>
		<path fill="#798193" d="M-46.758,362.727c-0.108-0.114-0.214-0.23-0.326-0.341c-0.111-0.112-0.226-0.219-0.341-0.326
			c-4.613-4.269-11.748-4.271-16.361-0.003l-0.676,0.676c-2.088,2.257-3.147,5.119-3.192,7.992v-0.304
			c-0.007,0.161-0.013,0.322-0.013,0.485s0.005,0.323,0.013,0.482v-0.297c0.043,2.874,1.102,5.735,3.187,7.992l0.686,0.685
			c2.222,2.054,5.032,3.108,7.859,3.181h-0.171c0.134,0.006,0.271,0.011,0.408,0.012c0.052-0.001,0.102-0.001,0.156-0.001
			c0.134-0.002,0.27-0.005,0.403-0.01l-0.175-0.001c2.831-0.071,5.641-1.125,7.865-3.181l0.686-0.686l8.173-8.175L-46.758,362.727z"
			/>
		<path fill="#798193" d="M-64.469,362.729l0.677-0.676c-0.118,0.107-0.235,0.214-0.349,0.329
			C-64.254,362.496-64.362,362.612-64.469,362.729z"/>
	</g>
	<g>
		<path fill="#FFFFFF" d="M-49.902,372.64c-0.045-0.031-0.09-0.055-0.125-0.07c-0.026-0.014-0.054-0.025-0.083-0.033
			c-0.122-0.043-0.248-0.066-0.375-0.066c-0.364,0-0.704,0.186-0.907,0.496c-0.01,0.016-0.02,0.033-0.028,0.051
			c-0.038,0.078-0.076,0.156-0.118,0.238c-0.009,0.02-0.017,0.037-0.023,0.057c-0.004,0.014-0.017,0.045-0.051,0.104l-0.115,0.145
			c-0.415,0.547-0.807,1.063-1.313,1.465c-0.513,0.406-1.128,0.684-1.829,0.824c-0.404,0.08-0.817,0.121-1.228,0.121
			c-1.093,0-2.106-0.295-2.854-0.834c-0.63-0.453-1.234-1.148-1.658-1.904c-0.186-0.332-0.337-0.689-0.449-1.063l-0.022-0.066
			c-0.058-0.283-0.216-0.531-0.449-0.703c-0.157-0.131-0.394-0.215-0.631-0.215c-0.13,0-0.254,0.023-0.368,0.072
			c-0.168,0.057-0.313,0.145-0.409,0.252c-0.125,0.131-0.213,0.295-0.262,0.494c-0.021,0.063-0.041,0.135-0.039,0.232
			c0,0.018,0.001,0.033,0.004,0.049c0.164,1.219,0.874,2.523,1.946,3.58c0.277,0.273,0.577,0.512,0.867,0.742
			c0.604,0.439,1.212,0.77,1.82,0.99c0.603,0.293,1.433,0.438,2.535,0.438c1.101,0,1.929-0.145,2.532-0.438
			c1.705-0.617,3.137-1.895,4.036-3.6c0.007-0.014,0.014-0.029,0.02-0.045C-49.289,373.47-49.475,372.915-49.902,372.64z"/>
		<path fill="#FFFFFF" d="M-62.936,369.806c0.122,0.137,0.303,0.219,0.437,0.264c0.085,0.035,0.21,0.061,0.339,0.061
			c0.238,0,0.475-0.084,0.65-0.23c0.213-0.156,0.371-0.404,0.429-0.688l0.016-0.047c0.118-0.393,0.269-0.752,0.455-1.084
			c0.01-0.018,0.02-0.037,0.027-0.057c0.017-0.043,0.036-0.084,0.058-0.121c0.017-0.021,0.043-0.057,0.056-0.08
			c0.758-1.518,2.444-2.459,4.402-2.459c1.957,0,3.644,0.941,4.401,2.459c0.012,0.023,0.027,0.047,0.043,0.068l0.188-0.111
			c0.002,0.004,0.007,0.01,0.008,0.012c0.001,0.002,0.002,0.004,0.003,0.006l-0.172,0.127c0.018,0.033,0.03,0.064,0.035,0.078
			c0.006,0.02,0.014,0.037,0.023,0.057c0.042,0.082,0.081,0.16,0.119,0.24c0.008,0.016,0.017,0.031,0.027,0.047
			c0.204,0.313,0.543,0.498,0.907,0.498c0.132,0,0.263-0.025,0.389-0.072c0.003-0.002,0.007-0.002,0.01-0.004
			c0.005-0.002,0.009-0.002,0.013-0.004c0.003-0.002,0.006-0.002,0.008-0.004c0.037-0.016,0.1-0.043,0.163-0.086
			c0.428-0.275,0.613-0.826,0.423-1.313c-0.006-0.016-0.013-0.031-0.02-0.045c-0.898-1.705-2.331-2.982-4.036-3.6
			c-0.603-0.293-1.431-0.438-2.532-0.438c-1.103,0-1.932,0.145-2.535,0.439c-0.607,0.219-1.215,0.549-1.806,0.977
			c-0.326,0.24-0.63,0.502-0.906,0.777c-1.057,1.059-1.758,2.354-1.921,3.555c-0.002,0.018-0.003,0.033-0.004,0.049
			c-0.002,0.105,0.02,0.182,0.042,0.242C-63.156,369.499-63.066,369.673-62.936,369.806z M-60.865,367.646L-60.865,367.646
			L-60.865,367.646L-60.865,367.646z"/>
	</g>
</g>
<line fill="none" stroke="#FFFFFF" stroke-width="0.3197" stroke-miterlimit="10" x1="238.334" y1="420.834" x2="255.386" y2="420.834"/>
<path fill="#57677C" d="M186.972,392.545c-0.066-0.073-0.136-0.146-0.206-0.218c-0.071-0.071-0.146-0.14-0.218-0.207
	c-0.71-0.656-1.518-1.146-2.372-1.476c-0.093-0.035-0.188-0.063-0.279-0.095c-0.114-0.038-0.229-0.081-0.345-0.113
	c-0.159-0.048-0.321-0.082-0.482-0.118c-0.051-0.012-0.102-0.025-0.153-0.035c-0.199-0.041-0.4-0.069-0.603-0.092
	c-0.015-0.003-0.029-0.006-0.045-0.007c-0.217-0.023-0.436-0.036-0.653-0.04h0.157c-0.098-0.004-0.196-0.008-0.297-0.008
	s-0.197,0.004-0.296,0.008h0.135c-1.771,0.034-3.532,0.689-4.925,1.979l-0.421,0.418l-5.073,5.074l5.072,5.072
	c0.066,0.073,0.136,0.146,0.207,0.218c0.071,0.071,0.144,0.14,0.218,0.207c0.71,0.656,1.517,1.146,2.373,1.476
	c0.091,0.035,0.184,0.063,0.276,0.095c0.115,0.039,0.229,0.081,0.346,0.113c0.159,0.048,0.321,0.083,0.482,0.119
	c0.052,0.011,0.102,0.024,0.152,0.034c0.201,0.041,0.403,0.07,0.605,0.093c0.014,0.002,0.028,0.005,0.042,0.006
	c0.217,0.023,0.436,0.036,0.654,0.04h-0.157c0.098,0.004,0.197,0.008,0.297,0.008s0.197-0.004,0.296-0.008h-0.136
	c1.771-0.034,3.534-0.689,4.927-1.978l0.419-0.42l5.074-5.073L186.972,392.545z"/>
<g>
	<path fill="#798193" d="M197.121,402.693c0.066,0.071,0.133,0.143,0.202,0.212s0.141,0.136,0.212,0.201
		c2.863,2.648,7.29,2.651,10.151,0.002l0.42-0.419c1.295-1.4,1.952-3.176,1.979-4.959v0.188c0.005-0.1,0.008-0.2,0.008-0.301
		c0-0.102-0.003-0.2-0.008-0.299v0.184c-0.026-1.783-0.683-3.559-1.978-4.959l-0.426-0.425c-1.378-1.274-3.121-1.929-4.876-1.974
		h0.107c-0.084-0.004-0.169-0.007-0.253-0.008c-0.033,0.001-0.063,0.001-0.098,0.001c-0.084,0.002-0.167,0.003-0.25,0.006
		l0.107,0.001c-1.756,0.044-3.499,0.698-4.88,1.974l-0.425,0.426l-5.072,5.072L197.121,402.693z"/>
	<path fill="#798193" d="M208.109,402.691l-0.42,0.419c0.074-0.065,0.146-0.133,0.217-0.204
		C207.977,402.836,208.044,402.765,208.109,402.691z"/>
</g>
<g>
	<path fill="#798193" d="M165.621,392.322c-0.07-0.071-0.142-0.138-0.215-0.204l0.21,0.209l0.21,0.21
		C165.759,392.465,165.692,392.394,165.621,392.322z"/>
	<path fill="#798193" d="M165.399,403.113l0.009-0.011c0.074-0.066,0.145-0.134,0.215-0.202c0.067-0.069,0.135-0.141,0.2-0.213l0,0
		l5.072-5.071l-5.072-5.071c-0.068-0.073-0.137-0.147-0.207-0.218c-0.072-0.071-0.145-0.14-0.217-0.208
		c-2.863-2.645-7.288-2.643-10.15,0.007l0.012-0.012c-0.073,0.068-0.147,0.136-0.217,0.208c-0.072,0.071-0.141,0.144-0.209,0.218
		l0,0c-2.648,2.861-2.648,7.288-0.002,10.151l0.419,0.418C158.114,405.756,162.536,405.758,165.399,403.113z"/>
</g>
<path fill="none" stroke="#57677C" stroke-linecap="round" stroke-linejoin="round" stroke-miterlimit="10" d="M217.965,302.262
	c-0.066-0.073-0.136-0.146-0.206-0.218c-0.071-0.071-0.146-0.14-0.218-0.207c-0.71-0.656-1.518-1.146-2.372-1.476
	c-0.093-0.035-0.188-0.063-0.279-0.095c-0.114-0.038-0.229-0.081-0.345-0.113c-0.159-0.048-0.321-0.082-0.482-0.118
	c-0.051-0.012-0.102-0.025-0.153-0.035c-0.199-0.041-0.4-0.069-0.603-0.092c-0.015-0.003-0.029-0.006-0.045-0.007
	c-0.217-0.023-0.436-0.036-0.653-0.04h0.157c-0.098-0.004-0.196-0.008-0.297-0.008s-0.197,0.004-0.296,0.008h0.135
	c-1.771,0.034-3.532,0.689-4.925,1.979l-0.421,0.418l-5.073,5.074l5.072,5.072c0.066,0.073,0.136,0.146,0.207,0.218
	c0.071,0.071,0.144,0.14,0.218,0.207c0.71,0.656,1.517,1.146,2.373,1.476c0.091,0.035,0.184,0.063,0.276,0.095
	c0.115,0.039,0.229,0.081,0.346,0.113c0.159,0.048,0.321,0.083,0.482,0.119c0.052,0.011,0.102,0.024,0.152,0.034
	c0.201,0.041,0.403,0.07,0.605,0.093c0.014,0.002,0.028,0.005,0.042,0.006c0.217,0.023,0.436,0.036,0.654,0.04h-0.157
	c0.098,0.004,0.197,0.008,0.297,0.008s0.197-0.004,0.296-0.008h-0.136c1.771-0.034,3.534-0.689,4.927-1.978l0.419-0.42l5.074-5.073
	L217.965,302.262z"/>
<path fill="#57677C" d="M216.865,303.276c-0.054-0.059-0.109-0.117-0.166-0.175c-0.057-0.057-0.117-0.111-0.174-0.165
	c-0.568-0.525-1.214-0.918-1.897-1.181c-0.074-0.028-0.149-0.05-0.224-0.076c-0.092-0.03-0.183-0.064-0.275-0.091
	c-0.127-0.038-0.258-0.065-0.387-0.094c-0.04-0.01-0.08-0.021-0.122-0.028c-0.159-0.033-0.32-0.056-0.481-0.073
	c-0.012-0.003-0.023-0.005-0.037-0.006c-0.173-0.019-0.348-0.029-0.521-0.032h0.125c-0.078-0.003-0.156-0.006-0.237-0.006
	s-0.157,0.003-0.237,0.006h0.108c-1.417,0.027-2.825,0.552-3.94,1.583l-0.336,0.334l-4.059,4.06l4.058,4.058
	c0.054,0.059,0.108,0.117,0.165,0.175c0.058,0.057,0.115,0.111,0.175,0.165c0.567,0.525,1.214,0.918,1.898,1.181
	c0.073,0.028,0.147,0.05,0.222,0.076c0.092,0.031,0.184,0.064,0.275,0.091c0.128,0.038,0.258,0.066,0.387,0.095
	c0.041,0.009,0.081,0.02,0.121,0.027c0.162,0.033,0.323,0.057,0.484,0.074c0.012,0.002,0.023,0.004,0.034,0.005
	c0.173,0.019,0.349,0.029,0.523,0.032h-0.126c0.078,0.003,0.158,0.006,0.238,0.006c0.079,0,0.157-0.003,0.236-0.006h-0.109
	c1.418-0.027,2.828-0.552,3.941-1.582l0.336-0.336l4.059-4.059L216.865,303.276z"/>
<g>
	<path fill="none" stroke="#798193" stroke-linecap="round" stroke-linejoin="round" stroke-miterlimit="10" d="M228.114,312.41
		c0.066,0.071,0.133,0.143,0.202,0.212s0.141,0.136,0.212,0.201c2.863,2.648,7.29,2.651,10.151,0.002l0.42-0.419
		c1.295-1.4,1.952-3.176,1.979-4.959v0.188c0.005-0.1,0.008-0.2,0.008-0.301c0-0.102-0.003-0.2-0.008-0.299v0.184
		c-0.026-1.783-0.683-3.559-1.978-4.959l-0.426-0.425c-1.378-1.274-3.121-1.929-4.876-1.974h0.107
		c-0.084-0.004-0.169-0.007-0.253-0.008c-0.033,0.001-0.063,0.001-0.098,0.001c-0.084,0.002-0.167,0.003-0.25,0.006l0.107,0.001
		c-1.756,0.044-3.499,0.698-4.88,1.974l-0.425,0.426l-5.072,5.072L228.114,312.41z"/>
	<path fill="none" stroke="#798193" stroke-linecap="round" stroke-linejoin="round" stroke-miterlimit="10" d="M239.103,312.408
		l-0.42,0.419c0.074-0.065,0.146-0.133,0.217-0.204C238.97,312.553,239.037,312.481,239.103,312.408z"/>
</g>
<g>
	<path fill="#798193" d="M229.279,311.395c0.053,0.058,0.105,0.114,0.162,0.17c0.055,0.056,0.111,0.108,0.169,0.161
		c2.29,2.118,5.832,2.121,8.121,0.001l0.336-0.335c1.036-1.12,1.562-2.541,1.583-3.967v0.15c0.004-0.08,0.007-0.16,0.007-0.24
		c0-0.082-0.003-0.16-0.007-0.239v0.146c-0.021-1.427-0.545-2.847-1.582-3.967l-0.34-0.34c-1.103-1.02-2.497-1.543-3.9-1.579h0.086
		c-0.068-0.003-0.136-0.006-0.203-0.006c-0.026,0-0.051,0-0.078,0c-0.066,0.002-0.133,0.003-0.199,0.005l0.086,0.001
		c-1.405,0.035-2.8,0.559-3.904,1.579l-0.34,0.341l-4.059,4.058L229.279,311.395z"/>
	<path fill="#798193" d="M238.07,311.394l-0.336,0.335c0.059-0.053,0.117-0.106,0.173-0.163S238.018,311.452,238.07,311.394z"/>
</g>
<g>
	<path fill="none" stroke="#798193" stroke-linecap="round" stroke-linejoin="round" stroke-miterlimit="10" d="M196.614,302.039
		c-0.07-0.071-0.142-0.138-0.215-0.204l0.21,0.209l0.21,0.21C196.752,302.182,196.686,302.11,196.614,302.039z"/>
	<path fill="none" stroke="#798193" stroke-linecap="round" stroke-linejoin="round" stroke-miterlimit="10" d="M196.393,312.83
		l0.009-0.011c0.074-0.066,0.145-0.134,0.215-0.202c0.067-0.069,0.135-0.141,0.2-0.213l0,0l5.072-5.071l-5.072-5.071
		c-0.068-0.073-0.137-0.147-0.207-0.218c-0.072-0.071-0.145-0.14-0.217-0.208c-2.863-2.645-7.288-2.643-10.15,0.007l0.012-0.012
		c-0.073,0.068-0.147,0.136-0.217,0.208c-0.072,0.071-0.141,0.144-0.209,0.218l0,0c-2.648,2.861-2.648,7.288-0.002,10.151
		l0.419,0.418C189.107,315.473,193.529,315.475,196.393,312.83z"/>
</g>
<g>
	<path fill="#798193" d="M195.678,303.098c-0.057-0.057-0.113-0.11-0.172-0.163l0.168,0.167l0.168,0.168
		C195.787,303.212,195.734,303.155,195.678,303.098z"/>
	<path fill="#798193" d="M195.5,311.73l0.007-0.009c0.06-0.053,0.116-0.106,0.172-0.161c0.054-0.056,0.108-0.112,0.16-0.171l0,0
		l4.058-4.057l-4.058-4.057c-0.055-0.059-0.109-0.118-0.165-0.175c-0.059-0.057-0.116-0.111-0.174-0.166
		c-2.291-2.116-5.83-2.114-8.121,0.005l0.01-0.009c-0.059,0.055-0.117,0.108-0.174,0.166s-0.111,0.115-0.166,0.175l0,0
		c-2.119,2.289-2.119,5.83-0.002,8.121l0.335,0.334C189.672,313.845,193.209,313.847,195.5,311.73z"/>
</g>
<path fill="#D8AD28" d="M196.943,310.531c-0.027-0.031-0.053-0.066-0.078-0.102l-0.041-0.057c-0.479-0.615-0.795-1.328-0.918-2.063
	c-0.002-0.014-0.006-0.027-0.012-0.041c-0.035-0.271-0.256-0.481-0.535-0.508c-0.02-0.006-0.038-0.008-0.058-0.008
	c-0.015,0-0.028,0.002-0.043,0.004h-0.625c-0.015-0.002-0.028-0.004-0.043-0.004c-0.296,0-0.544,0.23-0.577,0.535
	c-0.375,1.185-1.457,1.982-2.692,1.982c-1.566,0-2.841-1.275-2.841-2.842s1.274-2.841,2.841-2.841c1.267,0,2.355,0.826,2.709,2.057
	c0.021,0.108,0.056,0.159,0.075,0.191c0.028,0.067,0.053,0.133,0.113,0.188c0.105,0.104,0.239,0.16,0.385,0.16
	c0.012,0,0.024,0,0.037-0.003c0.242-0.017,0.445-0.193,0.513-0.45c0.005-0.019,0.007-0.037,0.007-0.057v-0.15v-0.083
	c0-0.021-0.002-0.04-0.008-0.061c-0.15-0.54-0.408-1.032-0.766-1.466c-0.363-0.44-0.803-0.791-1.31-1.042
	c-0.049-0.028-0.073-0.041-0.097-0.053c-0.51-0.236-1.071-0.356-1.668-0.356c-0.268,0-0.533,0.024-0.789,0.07
	c-1.846,0.385-3.182,2.025-3.182,3.902c0.004,1.883,1.341,3.52,3.18,3.9c0.271,0.055,0.543,0.082,0.809,0.082
	c0.557,0,1.105-0.121,1.631-0.359c0.043-0.018,0.083-0.041,0.125-0.064l0.061-0.033c0.189-0.102,0.388-0.213,0.574-0.359
	l0.054-0.046c0.222-0.181,0.414-0.368,0.587-0.574c0.009-0.008,0.018-0.017,0.025-0.025c0.201-0.244,0.372-0.524,0.519-0.849
	c0.208,0.736,0.557,1.43,1.022,2.021l0.037,0.049c0.022,0.031,0.045,0.06,0.068,0.089c0.012,0.015,0.025,0.026,0.041,0.036
	c0.061,0.045,0.187,0.139,0.359,0.139c0.344,0,0.623-0.279,0.623-0.623c0-0.1-0.043-0.172-0.068-0.215
	C196.979,310.586,196.957,310.549,196.943,310.531z"/>
<g>
	<g>
		<path fill="#D8AD28" d="M217.506,310.532c-0.025-0.03-0.049-0.063-0.072-0.096l-0.049-0.065c-0.475-0.613-0.791-1.326-0.916-2.06
			c0-0.009-0.003-0.019-0.006-0.027c-0.018-0.134-0.078-0.256-0.172-0.349c-0.049-0.051-0.117-0.098-0.192-0.129
			c-0.01-0.004-0.022-0.008-0.036-0.012c-0.057-0.021-0.109-0.031-0.164-0.035c-0.008,0-0.016-0.001-0.023-0.001
			c-0.01,0-0.103,0.001-0.213,0.038c-0.006,0.002-0.043,0.015-0.048,0.018c-0.056,0.023-0.125,0.058-0.191,0.121
			c-0.092,0.088-0.152,0.2-0.183,0.344c-0.002,0.002-0.02,0.057-0.02,0.059c-0.074,0.24-0.191,0.477-0.345,0.705l-0.053,0.074
			c-0.065,0.091-0.136,0.177-0.214,0.26c-0.537,0.598-1.293,0.938-2.074,0.938c-1.172,0-2.228-0.75-2.626-1.865
			c-0.016-0.044-0.028-0.087-0.041-0.131l-0.034-0.107c-0.011-0.031-0.022-0.062-0.029-0.096c-0.006-0.025-0.016-0.05-0.029-0.071
			c-0.112-0.183-0.303-0.291-0.507-0.291c-0.296,0-0.543,0.217-0.587,0.518c-0.004,0.025-0.003,0.053,0.002,0.078
			c0.021,0.098,0.047,0.195,0.075,0.291c0.045,0.151,0.101,0.303,0.169,0.463c0.037,0.08,0.074,0.156,0.113,0.23
			c0.01,0.021,0.021,0.047,0.037,0.072c0.441,0.809,1.162,1.441,2.028,1.779c0.447,0.166,0.929,0.25,1.435,0.25
			c0.465,0,0.906-0.07,1.313-0.209l0.049-0.018c0.09-0.031,0.18-0.069,0.266-0.107c0.072-0.033,0.141-0.067,0.209-0.103l0.055-0.03
			c0.525-0.297,0.959-0.68,1.293-1.131c0.199,0.467,0.457,0.9,0.766,1.294l0.033,0.044c0.025,0.033,0.05,0.064,0.077,0.097
			c0.011,0.013,0.022,0.024,0.036,0.033c0.092,0.069,0.205,0.138,0.359,0.138c0.344,0,0.624-0.279,0.624-0.623
			c0-0.1-0.042-0.171-0.067-0.214C217.543,310.587,217.521,310.549,217.506,310.532z"/>
	</g>
	<g>
		<path fill="#D8AD28" d="M209.218,307.201c0.289,0,0.526-0.211,0.577-0.512c0.011-0.027,0.17-0.443,0.254-0.594l-0.102-0.059
			c0.004-0.006,0.009-0.018,0.012-0.023l0.11,0.03c0.001-0.001,0.022-0.04,0.022-0.04c0.535-0.881,1.432-1.391,2.416-1.391
			c1.236,0,2.311,0.803,2.675,1.998c0.002,0.005,0.005,0.014,0.01,0.025c0.025,0.314,0.291,0.564,0.613,0.564
			c0.013,0,0.026-0.002,0.038-0.004c0.279-0.021,0.509-0.231,0.557-0.512l0.003-8.098v-0.198v-0.063
			c0-0.025-0.005-0.052-0.013-0.075c-0.086-0.243-0.316-0.406-0.57-0.406c-0.271,0-0.505,0.18-0.58,0.445
			c-0.006,0.02-0.01,0.041-0.01,0.062v0.206v6.021c-0.773-0.723-1.688-1.088-2.729-1.088c-1.112,0-2.064,0.39-2.831,1.156
			c-0.486,0.486-0.818,1.072-0.986,1.745c-0.015,0.052-0.023,0.108-0.033,0.165l-0.01,0.054c-0.004,0.026-0.004,0.052,0,0.077
			C208.69,306.985,208.933,307.201,209.218,307.201z"/>
	</g>
</g>
<g>
	<path fill="#D8AD28" d="M236.836,308.558c-0.037-0.027-0.075-0.043-0.096-0.053c-0.003,0-0.006-0.002-0.008-0.002l0,0
		c-0.008-0.003-0.015-0.006-0.022-0.008c-0.071-0.024-0.132-0.033-0.192-0.033c-0.193,0-0.373,0.099-0.482,0.264l-0.047,0.091
		l-0.033,0.068c-0.014,0.038-0.023,0.056-0.038,0.08l-0.069,0.09c-0.221,0.29-0.431,0.565-0.7,0.779
		c-0.276,0.221-0.608,0.37-0.988,0.446c-0.216,0.043-0.438,0.065-0.659,0.065c-0.59,0-1.139-0.16-1.543-0.451
		c-0.338-0.243-0.664-0.618-0.893-1.025c-0.102-0.181-0.184-0.372-0.243-0.573c0-0.002-0.015-0.042-0.015-0.044
		c-0.021-0.136-0.108-0.276-0.239-0.37c-0.08-0.067-0.206-0.111-0.333-0.111c-0.068,0-0.134,0.012-0.193,0.037
		c-0.062,0.018-0.168,0.065-0.232,0.15c-0.053,0.049-0.104,0.145-0.131,0.26c-0.004,0.009-0.019,0.052-0.017,0.114
		c0.09,0.678,0.472,1.378,1.048,1.944c0.135,0.135,0.28,0.253,0.436,0.378c0.003,0.003,0.033,0.026,0.037,0.03
		c0.324,0.233,0.656,0.41,0.983,0.527c0.301,0.152,0.75,0.231,1.349,0.231c0.6,0,1.049-0.079,1.373-0.241
		c0.896-0.318,1.672-1.006,2.157-1.929C237.152,308.999,237.057,308.704,236.836,308.558z"/>
	<path fill="#D8AD28" d="M229.83,307.024c0.043,0.062,0.149,0.109,0.227,0.133c0.042,0.02,0.107,0.032,0.178,0.032
		c0.127,0,0.252-0.045,0.346-0.122c0.118-0.084,0.205-0.225,0.232-0.387c0.068-0.219,0.15-0.41,0.252-0.59
		c0.023-0.057,0.031-0.074,0.043-0.092c0.003-0.006,0.027-0.042,0.031-0.049c0.408-0.817,1.319-1.325,2.375-1.325
		c1.055,0,1.966,0.508,2.375,1.325c0.006,0.016,0.025,0.041,0.035,0.054c0.008,0.015,0.018,0.032,0.02,0.04l0.045,0.099l0.031,0.065
		c0.125,0.19,0.305,0.289,0.498,0.289c0.072,0,0.145-0.014,0.213-0.039v-0.002h0.002l0,0c0.002,0,0.005-0.002,0.008-0.002
		c0.008-0.004,0.02-0.008,0.03-0.014c0.043-0.014,0.081-0.04,0.108-0.074c0.195-0.16,0.268-0.42,0.176-0.656
		c-0.495-0.944-1.27-1.634-2.192-1.963c-0.3-0.152-0.749-0.231-1.349-0.231c-0.599,0-1.048,0.079-1.374,0.241
		c-0.306,0.107-0.636,0.286-0.959,0.521c-0.181,0.132-0.339,0.268-0.485,0.417c-0.568,0.567-0.944,1.263-1.032,1.907
		c-0.004,0.088,0.013,0.135,0.019,0.154C229.704,306.855,229.756,306.951,229.83,307.024z"/>
</g>
<path fill="none" stroke="#57677C" stroke-width="1.0993" stroke-linecap="round" stroke-linejoin="round" stroke-miterlimit="10" d="
	M151.839,380.018c-0.077-0.076-0.157-0.151-0.238-0.228c-0.083-0.074-0.17-0.146-0.253-0.217c-0.823-0.683-1.758-1.194-2.748-1.538
	c-0.108-0.037-0.218-0.064-0.324-0.099c-0.132-0.04-0.264-0.084-0.399-0.117c-0.185-0.051-0.372-0.086-0.56-0.124
	c-0.058-0.013-0.116-0.026-0.177-0.036c-0.23-0.044-0.464-0.073-0.698-0.096c-0.017-0.004-0.034-0.006-0.053-0.008
	c-0.251-0.024-0.504-0.038-0.757-0.042h0.183c-0.112-0.004-0.227-0.008-0.344-0.008s-0.229,0.004-0.343,0.008h0.155
	c-2.052,0.036-4.092,0.72-5.706,2.064l-0.487,0.435l-5.879,5.292l5.878,5.29c0.077,0.076,0.157,0.152,0.24,0.228
	c0.082,0.073,0.166,0.145,0.251,0.217c0.823,0.683,1.758,1.194,2.75,1.537c0.106,0.038,0.213,0.065,0.321,0.099
	c0.133,0.041,0.265,0.085,0.4,0.119c0.185,0.05,0.372,0.087,0.56,0.123c0.059,0.012,0.116,0.026,0.176,0.036
	c0.232,0.043,0.467,0.073,0.701,0.097c0.016,0.002,0.032,0.005,0.049,0.007c0.251,0.024,0.505,0.037,0.759,0.041h-0.183
	c0.112,0.005,0.229,0.009,0.344,0.009s0.229-0.004,0.343-0.009h-0.157c2.054-0.035,4.096-0.719,5.709-2.063l0.485-0.438l5.88-5.29
	L151.839,380.018z"/>
<path fill="#798193" d="M150.565,381.076c-0.063-0.062-0.128-0.123-0.192-0.183c-0.065-0.06-0.136-0.116-0.201-0.173
	c-0.659-0.548-1.407-0.957-2.199-1.23c-0.086-0.03-0.174-0.053-0.259-0.08c-0.106-0.031-0.212-0.066-0.319-0.095
	c-0.147-0.039-0.299-0.067-0.447-0.098c-0.047-0.01-0.094-0.021-0.143-0.029c-0.185-0.035-0.371-0.058-0.558-0.076
	c-0.014-0.003-0.027-0.006-0.043-0.006c-0.2-0.021-0.403-0.031-0.604-0.035h0.146c-0.092-0.002-0.183-0.005-0.275-0.005
	c-0.095,0-0.182,0.003-0.275,0.005h0.126c-1.642,0.029-3.273,0.576-4.566,1.652l-0.389,0.349l-4.703,4.232l4.702,4.231
	c0.062,0.061,0.125,0.123,0.19,0.182c0.067,0.061,0.134,0.116,0.203,0.173c0.657,0.548,1.406,0.958,2.2,1.231
	c0.084,0.029,0.171,0.052,0.256,0.08c0.106,0.032,0.214,0.065,0.319,0.094c0.148,0.04,0.299,0.069,0.447,0.1
	c0.049,0.009,0.096,0.02,0.142,0.028c0.188,0.034,0.374,0.059,0.562,0.077c0.014,0.002,0.027,0.004,0.039,0.004
	c0.2,0.021,0.404,0.032,0.606,0.035h-0.146c0.092,0.003,0.184,0.006,0.277,0.006c0.091,0,0.182-0.003,0.273-0.006h-0.127
	c1.643-0.029,3.277-0.575,4.567-1.65l0.389-0.35l4.703-4.232L150.565,381.076z"/>
<path fill="#FFCB05" stroke="#FFFFFF" stroke-width="0.25" stroke-miterlimit="10" d="M214.709,303.664
	c0.031-0.041,0.04-0.062,0.027-0.062c-0.008,0-0.027,0.01-0.055,0.032l-3.467,2.66c-0.069,0.054-0.086,0.156-0.035,0.229l1.203,1.73
	c0.051,0.071,0.046,0.187-0.008,0.257l-2.154,2.734c-0.032,0.041-0.04,0.063-0.028,0.062c0.009,0.001,0.027-0.01,0.056-0.033
	l3.466-2.659c0.07-0.055,0.017-0.256,0.017-0.256l-1.185-1.703c-0.05-0.072-0.046-0.188,0.008-0.258L214.709,303.664z"/>
<g>
	<g>
		<path fill="none" stroke="#D8AD28" stroke-linecap="round" stroke-linejoin="round" stroke-miterlimit="10" d="M-103.157-432.77
			c-0.171-0.188-0.349-0.374-0.53-0.56c-0.183-0.184-0.376-0.359-0.56-0.532c-1.824-1.687-3.9-2.946-6.096-3.792
			c-0.238-0.09-0.482-0.161-0.718-0.244c-0.293-0.098-0.587-0.208-0.886-0.291c-0.409-0.123-0.826-0.211-1.24-0.304
			c-0.131-0.03-0.261-0.065-0.394-0.09c-0.512-0.105-1.029-0.178-1.549-0.236c-0.038-0.007-0.075-0.015-0.115-0.018
			c-0.557-0.06-1.119-0.093-1.679-0.103h0.404c-0.251-0.01-0.504-0.02-0.763-0.02c-0.259,0-0.507,0.01-0.761,0.02h0.347
			c-4.553,0.088-9.078,1.772-12.656,5.084l-1.082,1.074l-13.038,13.04l13.035,13.035c0.17,0.188,0.349,0.374,0.532,0.56
			c0.184,0.183,0.369,0.359,0.56,0.532c1.824,1.687,3.897,2.946,6.098,3.792c0.233,0.09,0.472,0.161,0.71,0.244
			c0.296,0.1,0.59,0.208,0.889,0.291c0.409,0.123,0.826,0.213,1.24,0.306c0.133,0.028,0.261,0.063,0.392,0.088
			c0.517,0.105,1.036,0.181,1.556,0.238c0.035,0.005,0.073,0.013,0.108,0.015c0.557,0.06,1.12,0.093,1.682,0.103h-0.404
			c0.251,0.01,0.507,0.02,0.763,0.02s0.507-0.01,0.76-0.02h-0.349c4.552-0.088,9.082-1.772,12.661-5.082l1.077-1.079l13.041-13.038
			L-103.157-432.77z"/>
		<path fill="#D8AD28" d="M-105.983-430.162c-0.138-0.15-0.281-0.301-0.426-0.449c-0.146-0.146-0.301-0.286-0.447-0.424
			c-1.46-1.35-3.12-2.359-4.876-3.034c-0.19-0.073-0.384-0.128-0.575-0.196c-0.236-0.078-0.469-0.166-0.708-0.233
			c-0.326-0.098-0.663-0.168-0.994-0.241c-0.103-0.025-0.206-0.053-0.314-0.073c-0.409-0.085-0.823-0.143-1.237-0.188
			c-0.03-0.007-0.06-0.012-0.095-0.015c-0.444-0.048-0.894-0.075-1.34-0.083h0.321c-0.201-0.007-0.401-0.015-0.61-0.015
			c-0.208,0-0.404,0.008-0.61,0.015h0.279c-3.642,0.07-7.26,1.418-10.126,4.068l-0.863,0.858l-10.43,10.433l10.427,10.427
			c0.138,0.151,0.279,0.301,0.424,0.449c0.148,0.146,0.296,0.286,0.449,0.424c1.458,1.35,3.119,2.359,4.878,3.034
			c0.188,0.073,0.379,0.128,0.57,0.196c0.236,0.08,0.472,0.166,0.708,0.233c0.329,0.098,0.663,0.17,0.994,0.243
			c0.105,0.022,0.208,0.05,0.311,0.07c0.417,0.085,0.831,0.146,1.245,0.191c0.03,0.005,0.061,0.01,0.088,0.012
			c0.444,0.048,0.896,0.076,1.345,0.083h-0.324c0.201,0.008,0.407,0.015,0.612,0.015c0.203,0,0.404-0.007,0.607-0.015h-0.281
			c3.644-0.07,7.268-1.418,10.129-4.065l0.863-0.863l10.43-10.43L-105.983-430.162z"/>
		<path fill="#57677C" d="M-104.216-411.325c-0.025-0.05-0.083-0.148-0.121-0.19c-0.065-0.078-0.125-0.163-0.186-0.246l-0.125-0.168
			c-1.22-1.576-2.033-3.408-2.354-5.293c0-0.022-0.008-0.048-0.015-0.07c-0.01-0.078-0.045-0.146-0.065-0.218
			c-0.073-0.253-0.19-0.492-0.376-0.678c-0.125-0.13-0.301-0.251-0.494-0.331c-0.025-0.01-0.058-0.02-0.093-0.03
			c-0.146-0.053-0.281-0.08-0.422-0.09c-0.02,0-0.04-0.002-0.06-0.002c-0.025,0-0.264,0.002-0.547,0.098
			c-0.015,0.005-0.11,0.038-0.123,0.045c-0.143,0.06-0.321,0.148-0.492,0.311c-0.068,0.065-0.08,0.176-0.133,0.251
			c-0.658,3.483-3.707,6.124-7.383,6.124c-3.805,0-6.919-2.838-7.418-6.505c-0.045-0.336-0.103-0.667-0.103-1.017
			c0-0.404,0.058-0.793,0.118-1.179c0.146-0.909,0.454-1.754,0.893-2.525c0.015-0.025,0.025-0.05,0.041-0.073
			c1.305-2.231,3.699-3.747,6.47-3.747c3.747,0,6.829,2.745,7.403,6.332c0.286,0.276,0.67,0.452,1.097,0.452
			c0.033,0,0.068-0.005,0.098-0.01c0.718-0.053,1.308-0.595,1.431-1.315v-0.236l0.007-20.574v-0.509v-0.161
			c0-0.065-0.012-0.133-0.032-0.193c-0.221-0.625-0.813-1.044-1.466-1.044c-0.698,0-1.297,0.462-1.491,1.145
			c-0.015,0.05-0.025,0.105-0.025,0.158v0.529v15.441c-1.842-1.724-4.299-2.798-7.022-2.798c-1.125,0-2.184,0.223-3.197,0.557
			c-0.906,0.286-1.772,0.66-2.563,1.202c-0.529,0.361-1.034,0.773-1.508,1.247c-0.058,0.058-0.103,0.123-0.158,0.181
			c-0.316,0.329-0.6,0.685-0.868,1.052c-0.17,0.238-0.333,0.477-0.479,0.728c-0.058,0.093-0.103,0.193-0.155,0.289
			c-0.851,1.499-1.375,3.205-1.375,5.052c0,5.692,4.613,10.305,10.305,10.305c3.42,0,6.427-1.684,8.302-4.246
			c0.512,1.189,1.169,2.299,1.958,3.302l0.085,0.113c0.065,0.085,0.128,0.166,0.198,0.249c0.027,0.032,0.058,0.063,0.093,0.085
			c0.236,0.178,0.527,0.354,0.923,0.354c0.883,0,1.604-0.718,1.604-1.601C-104.043-411.031-104.151-411.215-104.216-411.325z"/>
		<path fill="#FFCB05" stroke="#FCF8EF" stroke-width="0.6425" stroke-miterlimit="10" d="M-111.999-429.168
			c0.08-0.105,0.103-0.158,0.07-0.158c-0.021,0-0.07,0.025-0.141,0.083l-8.909,6.836c-0.178,0.138-0.221,0.402-0.09,0.587
			l3.092,4.447c0.13,0.183,0.118,0.479-0.02,0.66l-5.536,7.027c-0.083,0.105-0.103,0.161-0.073,0.158
			c0.022,0.002,0.07-0.025,0.143-0.085l8.906-6.834c0.181-0.141,0.043-0.657,0.043-0.657l-3.044-4.377
			c-0.128-0.186-0.118-0.482,0.02-0.663L-111.999-429.168z"/>
	</g>
	<path fill="none" stroke="#EAD090" stroke-linecap="round" stroke-linejoin="round" stroke-miterlimit="10" d="M-77.292-406.685
		c0.171,0.183,0.342,0.366,0.52,0.544c0.179,0.178,0.361,0.349,0.545,0.517c7.358,6.806,18.734,6.813,26.087,0.005l1.079-1.077
		c3.328-3.599,5.018-8.161,5.088-12.744v0.484c0.012-0.256,0.02-0.515,0.02-0.773c0-0.261-0.008-0.515-0.02-0.768v0.472
		c-0.068-4.583-1.755-9.145-5.082-12.744l-1.095-1.092c-3.541-3.275-8.021-4.957-12.53-5.072h0.276
		c-0.216-0.01-0.435-0.018-0.65-0.02c-0.085,0.002-0.163,0.002-0.251,0.002c-0.216,0.005-0.429,0.007-0.643,0.015l0.276,0.002
		c-4.513,0.113-8.992,1.794-12.541,5.072l-1.091,1.094l-13.035,13.035L-77.292-406.685z"/>
	<g>
		<path fill="#EAD090" d="M-74.298-409.295c0.136,0.148,0.271,0.294,0.417,0.437c0.141,0.143,0.286,0.278,0.434,0.414
			c5.886,5.443,14.987,5.451,20.87,0.002l0.863-0.861c2.663-2.878,4.013-6.53,4.068-10.194v0.386
			c0.01-0.206,0.018-0.412,0.018-0.617c0-0.211-0.008-0.412-0.018-0.615v0.376c-0.053-3.667-1.4-7.315-4.065-10.194l-0.874-0.874
			c-2.833-2.62-6.417-3.965-10.023-4.058h0.222c-0.176-0.008-0.35-0.015-0.522-0.015c-0.067,0-0.131,0-0.2,0
			c-0.171,0.005-0.342,0.007-0.513,0.012l0.221,0.003c-3.611,0.09-7.194,1.435-10.033,4.058l-0.873,0.876l-10.431,10.428
			L-74.298-409.295z"/>
		<path fill="#EAD090" d="M-51.706-409.297l-0.863,0.861c0.15-0.136,0.301-0.273,0.444-0.419
			C-51.982-409.001-51.842-409.146-51.706-409.297z"/>
	</g>
	<path fill="#57677C" d="M-73.272-417.062c0.024,0.201,0.095,0.401,0.141,0.602c0.11,0.382,0.2,0.773,0.354,1.14
		c0.01,0.025,0.022,0.05,0.032,0.075c0.249,0.577,0.545,1.119,0.889,1.636c0.025,0.035,0.048,0.075,0.075,0.116
		c0.324,0.472,0.695,0.908,1.09,1.32c0.05,0.055,0.088,0.11,0.138,0.161c0.072,0.07,0.155,0.13,0.229,0.196
		c0.374,0.356,0.768,0.688,1.189,0.984c0.118,0.08,0.243,0.146,0.366,0.226c0.43,0.271,0.873,0.522,1.343,0.733
		c0.085,0.035,0.171,0.075,0.259,0.11c1.204,0.497,2.521,0.778,3.904,0.783c0.016,0,0.028-0.005,0.043-0.005
		c1.333-0.005,2.598-0.276,3.765-0.743c0.243-0.095,0.479-0.221,0.715-0.341c0.334-0.161,0.66-0.326,0.974-0.527
		c0.309-0.196,0.61-0.422,0.901-0.663c0.165-0.13,0.334-0.261,0.489-0.407c0.409-0.371,0.793-0.778,1.146-1.225
		c0.021-0.025,0.043-0.05,0.065-0.085c0.377-0.477,0.713-1.009,1.014-1.566c0.018-0.03,0.035-0.065,0.053-0.1
		c0.264-0.703,0.022-1.461-0.547-1.832c-0.096-0.075-0.193-0.116-0.246-0.141c-0.01,0-0.018-0.005-0.022-0.005
		c-0.02-0.005-0.037-0.015-0.058-0.021c-0.186-0.06-0.341-0.085-0.499-0.085c-0.304,0-0.577,0.12-0.826,0.291
		c-0.077,0.19-0.183,0.364-0.276,0.544c-0.095,0.191-0.19,0.379-0.301,0.557c-0.131,0.211-0.273,0.409-0.424,0.605
		c-0.096,0.125-0.196,0.246-0.299,0.366c-0.178,0.206-0.358,0.407-0.558,0.59c-0.037,0.035-0.077,0.063-0.115,0.098
		c-0.481,0.429-1.019,0.793-1.599,1.089c-0.045,0.022-0.085,0.048-0.13,0.07c-0.289,0.138-0.585,0.251-0.892,0.354
		c-0.08,0.027-0.16,0.05-0.24,0.075c-0.681,0.201-1.386,0.344-2.134,0.344c-4.158,0-7.528-3.373-7.528-7.534
		c0-0.008,0.002-0.015,0.002-0.025l0,0c0-0.441,0.058-0.873,0.128-1.29c0-0.005,0.003-0.008,0.003-0.013
		c0.056-0.306,0.146-0.595,0.236-0.889c0.053-0.166,0.093-0.333,0.155-0.497c0.085-0.221,0.193-0.432,0.299-0.643
		c0.11-0.223,0.223-0.442,0.354-0.652c0.096-0.148,0.195-0.289,0.299-0.429c0.19-0.264,0.396-0.512,0.617-0.748
		c0.075-0.078,0.148-0.156,0.226-0.231c0.299-0.289,0.617-0.552,0.962-0.791c0.022-0.015,0.042-0.033,0.063-0.045
		c1.199-0.816,2.63-1.313,4.19-1.313c2.596,0,4.859,1.328,6.209,3.323c0.018,0.022,0.033,0.045,0.048,0.067
		c0.278,0.424,0.534,0.866,0.726,1.343c0.248,0.171,0.515,0.281,0.806,0.281c0.188,0,0.374-0.035,0.552-0.101v-0.01h0.005
		c0.005,0,0.013-0.005,0.022-0.005c0.021-0.01,0.051-0.02,0.078-0.035c0.11-0.035,0.208-0.101,0.281-0.191
		c0.507-0.417,0.692-1.089,0.456-1.702c-0.64-1.22-1.46-2.273-2.416-3.132c-0.018-0.015-0.035-0.028-0.053-0.043
		c-0.43-0.381-0.894-0.718-1.376-1.016c-0.157-0.095-0.326-0.176-0.489-0.264c-0.386-0.213-0.78-0.409-1.191-0.567
		c-0.858-0.326-1.774-0.52-2.726-0.605c-0.319-0.022-0.585-0.07-0.943-0.07c-0.131,0-0.244,0.01-0.369,0.013
		c-1.192,0.042-2.332,0.278-3.388,0.695c-0.211,0.083-0.427,0.184-0.646,0.292c-0.278,0.133-0.545,0.284-0.808,0.439
		c-0.274,0.163-0.548,0.324-0.821,0.522c-0.06,0.045-0.112,0.098-0.173,0.143c-0.404,0.304-0.78,0.612-1.114,0.959
		c-0.153,0.153-0.281,0.323-0.422,0.484c-0.238,0.274-0.484,0.54-0.692,0.838c-0.091,0.136-0.179,0.271-0.259,0.407
		c-0.278,0.437-0.532,0.888-0.742,1.368c-0.033,0.07-0.065,0.143-0.094,0.213c-0.138,0.339-0.223,0.7-0.328,1.054
		c-0.053,0.196-0.115,0.397-0.141,0.585c0,0.005,0,0.005,0,0.01c-0.065,0.268-0.115,0.542-0.166,0.815
		c-0.067,0.474-0.143,0.949-0.146,1.443c0,0.03,0.008,0.06,0.008,0.09c0.005,0.437,0.072,0.856,0.131,1.277
		c0.047,0.284,0.1,0.567,0.168,0.846C-73.272-417.067-73.272-417.067-73.272-417.062z"/>
	<path fill="none" stroke="#EAD090" stroke-linecap="round" stroke-linejoin="round" stroke-miterlimit="10" d="M-158.381-405.605
		l0.022-0.028c0.191-0.17,0.372-0.344,0.552-0.52c0.173-0.178,0.346-0.361,0.515-0.547l0,0l13.035-13.033l-5.675-5.674l-7.36-7.358
		c-0.176-0.188-0.352-0.379-0.532-0.56c-0.186-0.183-0.371-0.359-0.557-0.535c-7.358-6.796-18.729-6.791-26.085,0.018l0.03-0.03
		c-0.188,0.176-0.379,0.349-0.557,0.535c-0.186,0.183-0.361,0.369-0.537,0.56l0,0c-6.806,7.354-6.806,18.729-0.005,26.087
		l1.077,1.074C-177.103-398.814-165.739-398.81-158.381-405.605z"/>
	<g>
		<path fill="#EAD090" d="M-160.075-430.616c-0.146-0.146-0.291-0.284-0.442-0.419l0.432,0.429l0.432,0.432
			C-159.794-430.323-159.93-430.468-160.075-430.616z"/>
		<path fill="#EAD090" d="M-160.532-408.432l0.018-0.022c0.153-0.136,0.299-0.273,0.442-0.414c0.138-0.143,0.279-0.289,0.412-0.439
			l0,0l10.427-10.425l-10.427-10.425c-0.141-0.15-0.281-0.304-0.424-0.449c-0.15-0.146-0.298-0.286-0.447-0.427
			c-5.887-5.438-14.982-5.433-20.87,0.013l0.025-0.022c-0.15,0.141-0.301,0.278-0.447,0.427c-0.146,0.148-0.286,0.296-0.426,0.449
			l0,0c-5.446,5.882-5.446,14.982-0.005,20.87l0.861,0.858C-175.509-402.998-166.419-402.993-160.532-408.432z"/>
	</g>
	<path fill="#57677C" d="M-157.066-411.328c-0.022-0.05-0.08-0.146-0.115-0.191c-0.07-0.08-0.136-0.17-0.201-0.261l-0.105-0.146
		c-0.042-0.055-0.078-0.118-0.121-0.176c-1.132-1.313-1.895-2.931-2.146-4.733c-0.028-0.131-0.07-0.259-0.093-0.392
		c-0.005-0.035-0.015-0.07-0.03-0.105c-0.09-0.695-0.658-1.237-1.375-1.305c-0.05-0.015-0.098-0.02-0.148-0.02
		c-0.038,0-0.073,0.005-0.11,0.01l-0.66-0.002c-0.038-0.005-0.073-0.01-0.11-0.01c-0.502,0-0.931,0.271-1.205,0.673
		c-0.454,2.135-1.854,3.897-3.727,4.898c-0.078,0.045-0.153,0.088-0.233,0.128c-0.236,0.116-0.475,0.216-0.723,0.306
		c-0.206,0.076-0.414,0.136-0.625,0.193c-0.181,0.048-0.359,0.101-0.547,0.136c-0.437,0.08-0.883,0.135-1.343,0.135
		c-4.025,0-7.3-3.277-7.3-7.303c0-0.51,0.055-1.009,0.156-1.488c0.675-3.348,3.631-5.87,7.18-5.87c3.579,0,6.548,2.565,7.193,5.956
		c0.055,0.128,0.1,0.256,0.218,0.364c0.271,0.266,0.615,0.412,0.989,0.412c0.03,0,0.063,0,0.095-0.008
		c0.623-0.042,1.145-0.497,1.318-1.157c0.012-0.048,0.018-0.095,0.018-0.146v-0.387v-0.213c0-0.053-0.005-0.103-0.021-0.156
		c-0.386-1.388-1.049-2.653-1.967-3.767c-0.934-1.132-2.063-2.033-3.365-2.678c-0.125-0.073-0.188-0.105-0.249-0.135
		c-1.31-0.607-2.753-0.916-4.287-0.916c-0.688,0-1.37,0.063-2.028,0.181c-4.743,0.989-8.176,5.205-8.176,10.028
		c0.01,4.838,3.446,9.044,8.171,10.023c0.695,0.141,1.396,0.21,2.078,0.21c1.43,0,2.841-0.311,4.191-0.923
		c0.11-0.045,0.213-0.105,0.321-0.166l0.156-0.085c0.487-0.261,0.996-0.547,1.476-0.923l0.138-0.118
		c0.57-0.464,1.064-0.946,1.508-1.476c0.023-0.02,0.045-0.042,0.065-0.065c0.517-0.627,0.808-1.187,0.861-1.513
		c0.535,1.892,1.579,3.599,2.374,4.447l0.095,0.125c0.058,0.08,0.116,0.153,0.176,0.228c0.03,0.038,0.065,0.068,0.105,0.093
		c0.156,0.115,0.647,0.454,1.082,0.356c0.726-0.163,1.222-0.635,1.222-1.518C-156.891-411.031-157.001-411.217-157.066-411.328z"/>
</g>
<rect x="-26.146" y="-434.683" fill="none" width="351.479" height="27.581"/>
<text transform="matrix(1 0 0 1 -26.1465 -408.043)" fill="#657185" stroke="#657185" stroke-width="0.25" stroke-miterlimit="10" font-family="'GeosansLight'" font-size="36">LiteSpeed</text>
<text transform="matrix(1 0 0 1 110.3623 -408.043)" fill="#4B5265" font-family="'GeosansLight'" font-size="36"> </text>
<text transform="matrix(1 0 0 1 119.542 -408.043)" fill="#595D6F" stroke="#4B5265" stroke-width="0.5" stroke-miterlimit="10" font-family="'GeosansLight'" font-size="36">Web </text>
<text transform="matrix(1.25 0 0 1 196.5098 -408.043)" fill="#595D6F" stroke="#4B5265" stroke-width="0.5" stroke-miterlimit="10" font-family="'GeosansLight'" font-size="36">A</text>
<text transform="matrix(1.1 0 0 1 224.9941 -408.043)" fill="#595D6F" stroke="#4B5265" stroke-width="0.5" stroke-miterlimit="10" font-family="'GeosansLight'" font-size="36">D</text>
<text transform="matrix(1 0 0 1 252.2383 -408.043)" fill="#595D6F" stroke="#4B5265" stroke-width="0.5" stroke-miterlimit="10" font-family="'GeosansLight'" font-size="36">C</text>
<g>
	<g>
		<path fill="#003B71" d="M92.615,44.693L80.153,57.156c-1.378,1.378-3.21,2.138-5.158,2.14h-0.007c-1.95,0-3.785-0.76-5.167-2.14
			L31.927,19.258c-1.005-1.003-2.336-1.554-3.751-1.554c-1.417,0-2.75,0.552-3.752,1.555l-14.49,14.49
			c-1.001,1-1.553,2.333-1.553,3.751s0.552,2.751,1.554,3.752l14.489,14.49c0.977,0.974,2.343,1.531,3.752,1.531
			c1.41,0,2.777-0.558,3.75-1.53L44.38,43.289l-2.122-2.122L29.806,53.621c-0.871,0.87-2.39,0.869-3.261,0L12.055,39.13
			c-0.899-0.898-0.899-2.361,0-3.26l14.49-14.49c0.436-0.436,1.015-0.676,1.631-0.676c0.615,0,1.194,0.24,1.63,0.675l37.896,37.899
			c1.947,1.945,4.534,3.018,7.287,3.018c0.003,0,0.006,0,0.01,0c2.749-0.003,5.332-1.074,7.276-3.019l12.462-12.463L92.615,44.693z"
			/>
		<path fill="#003B71" d="M28.176,59.296c-1.951,0-3.785-0.76-5.166-2.14L8.52,42.665c-1.377-1.377-2.135-3.211-2.135-5.165
			s0.758-3.788,2.134-5.165L23.01,17.844c1.38-1.38,3.215-2.14,5.166-2.14s3.785,0.76,5.165,2.14l23.192,23.134l-0.185-0.225
			c0.546,0.594,2.883,2.939,14.884,14.985c0.979,0.978,2.346,1.534,3.757,1.534c1.449,0,2.782-0.543,3.769-1.53l12.453-12.453
			l-2.121-2.122L76.637,53.621c-0.438,0.438-1.039,0.653-1.64,0.651c-0.601,0.002-1.202-0.215-1.64-0.651
			c0,0-14.694-14.75-14.706-14.768L35.462,15.723c-1.946-1.946-4.533-3.019-7.286-3.019s-5.34,1.072-7.288,3.019L6.398,30.214
			c-4.018,4.018-4.018,10.555,0,14.572l4.62,4.62l9.872,9.872c1.947,1.945,4.534,3.018,7.287,3.018s5.34-1.072,7.286-3.019
			l12.453-12.453l-2.121-2.121L33.341,57.156C31.96,58.536,30.126,59.296,28.176,59.296z"/>
	</g>
	<g>
		<path fill="#003B71" d="M75.001,15.704c1.956,0,3.791,0.76,5.171,2.14l37.896,37.898c0.976,0.974,2.343,1.531,3.752,1.531
			c1.41,0,2.777-0.558,3.75-1.53l14.491-14.492c1.003-1.002,1.555-2.334,1.555-3.751c0-1.418-0.553-2.751-1.557-3.753L125.57,19.258
			c-1.005-1.003-2.336-1.554-3.751-1.554c-1.417,0-2.75,0.552-3.752,1.555l-12.434,12.433l2.121,2.122l12.434-12.434
			c0.436-0.436,1.015-0.676,1.631-0.676c0.615,0,1.194,0.24,1.63,0.675l14.49,14.492c0.436,0.435,0.676,1.014,0.676,1.629
			s-0.24,1.194-0.676,1.63l-14.49,14.491c-0.871,0.87-2.39,0.869-3.261,0L82.293,15.723c-1.946-1.946-4.533-3.019-7.286-3.019
			c-0.003,0-0.006,0-0.009,0c-2.75,0.003-5.333,1.074-7.278,3.019L55.277,28.166l2.121,2.121l12.442-12.443
			C71.22,16.467,73.052,15.706,75.001,15.704z"/>
		<path fill="#003B71" d="M143.596,30.214l-14.49-14.491c-1.946-1.946-4.533-3.019-7.286-3.019s-5.34,1.072-7.287,3.019
			l-12.434,12.434l2.121,2.121l12.434-12.434c1.381-1.38,3.216-2.14,5.166-2.14s3.785,0.76,5.165,2.14l14.49,14.491
			c1.381,1.38,2.141,3.214,2.141,5.165c0,1.95-0.761,3.785-2.141,5.166l-14.49,14.49c-1.38,1.38-3.215,2.14-5.165,2.14
			s-3.785-0.76-5.167-2.14L78.758,19.258c-1.005-1.003-2.336-1.554-3.751-1.554c-0.003,0-0.016,0-0.019,0
			c-1.417,0-2.75,0.552-3.752,1.555L58.803,31.691l2.121,2.122L73.357,21.38c0.436-0.436,1.015-0.676,1.631-0.676
			c0.003,0,0.006,0.001,0.01,0.001c0.003,0,0.006-0.001,0.009-0.001c0.615,0,1.194,0.24,1.63,0.675l37.896,37.899
			c1.947,1.945,4.534,3.018,7.287,3.018s5.34-1.072,7.286-3.019l14.49-14.49c1.946-1.946,3.02-4.534,3.02-7.287
			S145.542,32.159,143.596,30.214z"/>
	</g>
	<g>
		<path fill="#DCAA00" d="M28.176,31.348l6.151,6.152l-6.151,6.152L22.024,37.5L28.176,31.348 M28.176,29.183
			c-0.41,0-0.819,0.156-1.131,0.468l-6.718,6.719c-0.625,0.625-0.625,1.637,0,2.262l6.718,6.719
			c0.312,0.313,0.722,0.468,1.131,0.468c0.409,0,0.818-0.155,1.131-0.468l6.718-6.719c0.625-0.625,0.625-1.637,0-2.262l-6.718-6.719
			C28.994,29.338,28.585,29.183,28.176,29.183L28.176,29.183z"/>
	</g>
	<g>
		<path fill="#DCAA00" d="M121.813,31.348l6.151,6.152l-6.151,6.152l-6.151-6.152L121.813,31.348 M121.813,29.183
			c-0.409,0-0.818,0.156-1.131,0.468l-6.718,6.719c-0.625,0.625-0.625,1.637,0,2.262l6.718,6.719
			c0.313,0.313,0.722,0.468,1.131,0.468s0.818-0.155,1.131-0.468l6.718-6.719c0.625-0.625,0.625-1.637,0-2.262l-6.718-6.719
			C122.631,29.338,122.222,29.183,121.813,29.183L121.813,29.183z"/>
	</g>
	<path fill="#FFD100" d="M69.421,47.079c-0.091-0.025-0.145-0.068-0.153-0.086c-0.026-0.056-0.044-0.152,0.104-0.324l5.271-6.69
		c0.072-0.113,0.091-0.279,0.028-0.394l-2.958-4.264c-0.178-0.248-0.12-0.612,0.124-0.798l8.483-6.511
		c0.145-0.114,0.213-0.114,0.238-0.114c0.066,0,0.141,0.046,0.172,0.106c0.049,0.095,0.006,0.186-0.09,0.32l-5.282,6.695
		c-0.089,0.121-0.089,0.321-0.005,0.435l2.889,4.157c0.063,0.197,0.169,0.678-0.074,0.865l-8.483,6.504
		c-0.081,0.064-0.143,0.11-0.214,0.118C69.454,47.091,69.438,47.084,69.421,47.079z"/>
	<g>
		<path fill="#407CCA" d="M73.249,39.728l-2.555-3.681c-0.569-0.794-0.396-1.923,0.381-2.516l6.291-4.828l-1.015-1.015
			c-0.781-0.78-2.047-0.78-2.828,0l-8.396,8.397c-0.781,0.781-0.781,2.047,0,2.828l4.901,4.901L73.249,39.728z"/>
		<path fill="#407CCA" d="M84.748,36.086l-4.829-4.83l-3.171,4.019l2.527,3.636c0.092,0.137,0.159,0.284,0.197,0.432
			c0.241,0.898,0.044,1.674-0.546,2.128l-6.365,4.88l0.961,0.962c0.781,0.78,2.047,0.78,2.828,0l8.396-8.397
			C85.529,38.133,85.529,36.867,84.748,36.086z"/>
	</g>
</g>
</svg>
